%TF.GenerationSoftware,KiCad,Pcbnew,(6.0.8)*%
%TF.CreationDate,2022-11-20T14:02:22-08:00*%
%TF.ProjectId,mezzanine-breakout-board,6d657a7a-616e-4696-9e65-2d627265616b,rev?*%
%TF.SameCoordinates,Original*%
%TF.FileFunction,Copper,L2,Bot*%
%TF.FilePolarity,Positive*%
%FSLAX46Y46*%
G04 Gerber Fmt 4.6, Leading zero omitted, Abs format (unit mm)*
G04 Created by KiCad (PCBNEW (6.0.8)) date 2022-11-20 14:02:22*
%MOMM*%
%LPD*%
G01*
G04 APERTURE LIST*
G04 Aperture macros list*
%AMRoundRect*
0 Rectangle with rounded corners*
0 $1 Rounding radius*
0 $2 $3 $4 $5 $6 $7 $8 $9 X,Y pos of 4 corners*
0 Add a 4 corners polygon primitive as box body*
4,1,4,$2,$3,$4,$5,$6,$7,$8,$9,$2,$3,0*
0 Add four circle primitives for the rounded corners*
1,1,$1+$1,$2,$3*
1,1,$1+$1,$4,$5*
1,1,$1+$1,$6,$7*
1,1,$1+$1,$8,$9*
0 Add four rect primitives between the rounded corners*
20,1,$1+$1,$2,$3,$4,$5,0*
20,1,$1+$1,$4,$5,$6,$7,0*
20,1,$1+$1,$6,$7,$8,$9,0*
20,1,$1+$1,$8,$9,$2,$3,0*%
G04 Aperture macros list end*
%TA.AperFunction,SMDPad,CuDef*%
%ADD10RoundRect,0.075000X-0.475000X-0.075000X0.475000X-0.075000X0.475000X0.075000X-0.475000X0.075000X0*%
%TD*%
%TA.AperFunction,ComponentPad*%
%ADD11R,1.700000X1.700000*%
%TD*%
%TA.AperFunction,ComponentPad*%
%ADD12O,1.700000X1.700000*%
%TD*%
%TA.AperFunction,Conductor*%
%ADD13C,0.300000*%
%TD*%
%TA.AperFunction,Conductor*%
%ADD14C,0.800000*%
%TD*%
%TA.AperFunction,Conductor*%
%ADD15C,1.800000*%
%TD*%
G04 APERTURE END LIST*
D10*
%TO.P,J1,P$1,CAN_L*%
%TO.N,/CAN_L*%
X124750000Y-109500000D03*
%TO.P,J1,P$2,CAN_H*%
%TO.N,/CAN_H*%
X124750000Y-109000000D03*
%TO.P,J1,P$3,BOOT*%
%TO.N,/BOOT*%
X124750000Y-108500000D03*
%TO.P,J1,P$4,UART_RX*%
%TO.N,/UART_RX*%
X124750000Y-108000000D03*
%TO.P,J1,P$5,UART_TX*%
%TO.N,/UART_TX*%
X124750000Y-107500000D03*
%TO.P,J1,P$6,5V*%
%TO.N,/5V*%
X124750000Y-107000000D03*
%TO.P,J1,P$7,5V*%
X124750000Y-106500000D03*
%TO.P,J1,P$8,GND*%
%TO.N,/GND*%
X124750000Y-106000000D03*
%TO.P,J1,P$9,GND*%
X124750000Y-105500000D03*
%TO.P,J1,P$10,GND*%
X124750000Y-105000000D03*
%TO.P,J1,P$11,GND*%
X124750000Y-104500000D03*
%TO.P,J1,P$12,VBUS*%
%TO.N,/VBUS*%
X124750000Y-104000000D03*
%TO.P,J1,P$13,VBUS*%
X124750000Y-103500000D03*
%TO.P,J1,P$14,VBUS*%
X124750000Y-103000000D03*
%TO.P,J1,P$15,VBUS*%
X124750000Y-102500000D03*
%TO.P,J1,P$16,VBUS*%
X119250000Y-102500000D03*
%TO.P,J1,P$17,VBUS*%
X119250000Y-103000000D03*
%TO.P,J1,P$18,VBUS*%
X119250000Y-103500000D03*
%TO.P,J1,P$19,VBUS*%
X119250000Y-104000000D03*
%TO.P,J1,P$20,GND*%
%TO.N,/GND*%
X119250000Y-104500000D03*
%TO.P,J1,P$21,GND*%
X119250000Y-105000000D03*
%TO.P,J1,P$22,GND*%
X119250000Y-105500000D03*
%TO.P,J1,P$23,GND*%
X119250000Y-106000000D03*
%TO.P,J1,P$24,5V*%
%TO.N,/5V*%
X119250000Y-106500000D03*
%TO.P,J1,P$25,5V*%
X119250000Y-107000000D03*
%TO.P,J1,P$26,UART_TX*%
%TO.N,/UART_TX*%
X119250000Y-107500000D03*
%TO.P,J1,P$27,UART_RX*%
%TO.N,/UART_RX*%
X119250000Y-108000000D03*
%TO.P,J1,P$28,BOOT*%
%TO.N,/BOOT*%
X119250000Y-108500000D03*
%TO.P,J1,P$29,CAN_H*%
%TO.N,/CAN_H*%
X119250000Y-109000000D03*
%TO.P,J1,P$30,CAN_L*%
%TO.N,/CAN_L*%
X119250000Y-109500000D03*
%TD*%
D11*
%TO.P,J2,1,Pin_1*%
%TO.N,/VBUS*%
X141000000Y-94575000D03*
D12*
%TO.P,J2,2,Pin_2*%
X141000000Y-97115000D03*
%TO.P,J2,3,Pin_3*%
%TO.N,/GND*%
X141000000Y-99655000D03*
%TO.P,J2,4,Pin_4*%
X141000000Y-102195000D03*
%TO.P,J2,5,Pin_5*%
%TO.N,/5V*%
X141000000Y-104735000D03*
%TO.P,J2,6,Pin_6*%
%TO.N,/UART_TX*%
X141000000Y-107275000D03*
%TO.P,J2,7,Pin_7*%
%TO.N,/UART_RX*%
X141000000Y-109815000D03*
%TO.P,J2,8,Pin_8*%
%TO.N,/BOOT*%
X141000000Y-112355000D03*
%TO.P,J2,9,Pin_9*%
%TO.N,/CAN_H*%
X141000000Y-114895000D03*
%TO.P,J2,10,Pin_10*%
%TO.N,/CAN_L*%
X141000000Y-117435000D03*
%TD*%
D13*
%TO.N,/CAN_L*%
X133065000Y-109500000D02*
X141000000Y-117435000D01*
X119250000Y-109500000D02*
X124750000Y-109500000D01*
X124750000Y-109500000D02*
X133065000Y-109500000D01*
%TO.N,/CAN_H*%
X133300000Y-109000000D02*
X139195000Y-114895000D01*
X124750000Y-109000000D02*
X133300000Y-109000000D01*
X139195000Y-114895000D02*
X141000000Y-114895000D01*
X119250000Y-109000000D02*
X124750000Y-109000000D01*
%TO.N,/BOOT*%
X137145000Y-108500000D02*
X141000000Y-112355000D01*
X119250000Y-108500000D02*
X124750000Y-108500000D01*
X124750000Y-108500000D02*
X137145000Y-108500000D01*
%TO.N,/UART_RX*%
X124750000Y-108000000D02*
X139185000Y-108000000D01*
X139185000Y-108000000D02*
X141000000Y-109815000D01*
X119250000Y-108000000D02*
X124750000Y-108000000D01*
%TO.N,/UART_TX*%
X124750000Y-107500000D02*
X140775000Y-107500000D01*
X124750000Y-107525000D02*
X124800000Y-107525000D01*
X140775000Y-107500000D02*
X141000000Y-107275000D01*
X124750000Y-107500000D02*
X124750000Y-107525000D01*
X119250000Y-107500000D02*
X124750000Y-107500000D01*
D14*
%TO.N,/5V*%
X138985000Y-106750000D02*
X141000000Y-104735000D01*
X123700000Y-106750000D02*
X138985000Y-106750000D01*
D15*
%TO.N,/VBUS*%
X138735000Y-97115000D02*
X141000000Y-97115000D01*
X123800000Y-103300000D02*
X132550000Y-103300000D01*
X132550000Y-103300000D02*
X138735000Y-97115000D01*
X141000000Y-97115000D02*
X141000000Y-94575000D01*
%TD*%
%TA.AperFunction,Conductor*%
%TO.N,/5V*%
G36*
X124246195Y-106350167D02*
G01*
X124247867Y-106350500D01*
X124252726Y-106350500D01*
X125062376Y-106350499D01*
X125251000Y-106350499D01*
X125309191Y-106369406D01*
X125345155Y-106418906D01*
X125350000Y-106449499D01*
X125350000Y-107050500D01*
X125331093Y-107108691D01*
X125281593Y-107144655D01*
X125251000Y-107149500D01*
X124769710Y-107149500D01*
X124761167Y-107149131D01*
X124730273Y-107146455D01*
X124730272Y-107146455D01*
X124722120Y-107145749D01*
X124714178Y-107147722D01*
X124706021Y-107148364D01*
X124706004Y-107148142D01*
X124694908Y-107149500D01*
X119220885Y-107149500D01*
X119220883Y-107149501D01*
X118749000Y-107149501D01*
X118690809Y-107130594D01*
X118654845Y-107081094D01*
X118650000Y-107050501D01*
X118650000Y-106449500D01*
X118668907Y-106391309D01*
X118718407Y-106355345D01*
X118749000Y-106350500D01*
X118937664Y-106350500D01*
X119752132Y-106350499D01*
X119753802Y-106350167D01*
X119757198Y-106350000D01*
X124242790Y-106350000D01*
X124246195Y-106350167D01*
G37*
%TD.AperFunction*%
%TD*%
%TA.AperFunction,Conductor*%
%TO.N,/GND*%
G36*
X144988169Y-91203018D02*
G01*
X144999641Y-91205656D01*
X145010516Y-91203195D01*
X145021663Y-91203215D01*
X145021661Y-91204219D01*
X145031562Y-91203609D01*
X145117698Y-91212092D01*
X145146272Y-91214906D01*
X145165301Y-91218691D01*
X145296626Y-91258528D01*
X145314555Y-91265955D01*
X145435577Y-91330643D01*
X145451713Y-91341424D01*
X145557798Y-91428485D01*
X145571515Y-91442202D01*
X145639113Y-91524571D01*
X145658576Y-91548287D01*
X145669357Y-91564423D01*
X145734045Y-91685445D01*
X145741472Y-91703373D01*
X145781309Y-91834699D01*
X145785094Y-91853730D01*
X145796384Y-91968363D01*
X145796861Y-91978239D01*
X145796843Y-91988774D01*
X145794344Y-91999641D01*
X145797059Y-92011638D01*
X145799500Y-92033488D01*
X145799500Y-119965983D01*
X145796982Y-119988169D01*
X145794344Y-119999641D01*
X145796805Y-120010516D01*
X145796785Y-120021663D01*
X145795781Y-120021661D01*
X145796391Y-120031562D01*
X145785094Y-120146270D01*
X145781309Y-120165301D01*
X145774308Y-120188380D01*
X145741472Y-120296626D01*
X145734045Y-120314555D01*
X145669357Y-120435577D01*
X145658576Y-120451713D01*
X145571515Y-120557798D01*
X145557798Y-120571515D01*
X145475429Y-120639113D01*
X145451713Y-120658576D01*
X145435577Y-120669357D01*
X145314555Y-120734045D01*
X145296627Y-120741472D01*
X145165301Y-120781309D01*
X145146272Y-120785094D01*
X145031637Y-120796384D01*
X145021761Y-120796861D01*
X145011226Y-120796843D01*
X145000359Y-120794344D01*
X144988359Y-120797059D01*
X144966512Y-120799500D01*
X118034017Y-120799500D01*
X118011831Y-120796982D01*
X118011813Y-120796978D01*
X118000359Y-120794344D01*
X117989484Y-120796805D01*
X117978337Y-120796785D01*
X117978339Y-120795781D01*
X117968438Y-120796391D01*
X117882302Y-120787908D01*
X117853728Y-120785094D01*
X117834699Y-120781309D01*
X117703373Y-120741472D01*
X117685445Y-120734045D01*
X117564423Y-120669357D01*
X117548287Y-120658576D01*
X117524571Y-120639113D01*
X117442202Y-120571515D01*
X117428485Y-120557798D01*
X117341424Y-120451713D01*
X117330643Y-120435577D01*
X117265955Y-120314555D01*
X117258528Y-120296626D01*
X117225692Y-120188380D01*
X117218691Y-120165301D01*
X117214906Y-120146270D01*
X117203658Y-120032058D01*
X117203830Y-120011037D01*
X117204389Y-120006180D01*
X117205655Y-120000718D01*
X117205656Y-120000000D01*
X117203096Y-119988776D01*
X117202980Y-119988266D01*
X117200500Y-119966248D01*
X117200500Y-106161322D01*
X118407475Y-106161322D01*
X118409730Y-106176639D01*
X118414239Y-106191153D01*
X118458903Y-106282122D01*
X118467577Y-106342690D01*
X118464191Y-106356345D01*
X118455761Y-106382290D01*
X118455759Y-106382299D01*
X118454557Y-106385998D01*
X118453948Y-106389842D01*
X118453947Y-106389847D01*
X118445109Y-106445652D01*
X118444500Y-106449500D01*
X118444500Y-107050501D01*
X118447030Y-107082645D01*
X118451875Y-107113238D01*
X118454107Y-107118627D01*
X118454108Y-107118630D01*
X118486358Y-107196491D01*
X118488592Y-107201884D01*
X118492019Y-107206602D01*
X118492022Y-107206606D01*
X118504945Y-107224392D01*
X118523852Y-107282583D01*
X118517507Y-107314478D01*
X118515485Y-107317505D01*
X118499500Y-107397867D01*
X118499501Y-107602132D01*
X118515485Y-107682495D01*
X118520904Y-107690605D01*
X118523840Y-107695000D01*
X118540448Y-107753888D01*
X118523840Y-107805000D01*
X118520905Y-107809393D01*
X118515485Y-107817505D01*
X118499500Y-107897867D01*
X118499501Y-108102132D01*
X118515485Y-108182495D01*
X118520904Y-108190605D01*
X118523840Y-108195000D01*
X118540448Y-108253888D01*
X118523840Y-108305000D01*
X118520905Y-108309393D01*
X118515485Y-108317505D01*
X118513583Y-108327068D01*
X118513582Y-108327070D01*
X118508922Y-108350500D01*
X118499500Y-108397867D01*
X118499501Y-108602132D01*
X118515485Y-108682495D01*
X118520904Y-108690605D01*
X118523840Y-108695000D01*
X118540448Y-108753888D01*
X118523840Y-108805000D01*
X118520905Y-108809393D01*
X118515485Y-108817505D01*
X118513583Y-108827068D01*
X118513582Y-108827070D01*
X118508922Y-108850500D01*
X118499500Y-108897867D01*
X118499501Y-109102132D01*
X118515485Y-109182495D01*
X118520904Y-109190605D01*
X118523840Y-109195000D01*
X118540448Y-109253888D01*
X118523840Y-109305000D01*
X118520905Y-109309393D01*
X118515485Y-109317505D01*
X118499500Y-109397867D01*
X118499501Y-109602132D01*
X118515485Y-109682495D01*
X118576376Y-109773624D01*
X118667505Y-109834515D01*
X118677068Y-109836417D01*
X118677070Y-109836418D01*
X118703621Y-109841699D01*
X118747867Y-109850500D01*
X132878810Y-109850500D01*
X132937001Y-109869407D01*
X132948814Y-109879496D01*
X140001351Y-116932033D01*
X140029128Y-116986550D01*
X140025713Y-117031970D01*
X139967484Y-117215532D01*
X139966944Y-117220344D01*
X139966944Y-117220345D01*
X139965865Y-117229970D01*
X139944520Y-117420262D01*
X139961759Y-117625553D01*
X140018544Y-117823586D01*
X140112712Y-118006818D01*
X140240677Y-118168270D01*
X140244357Y-118171402D01*
X140244359Y-118171404D01*
X140357017Y-118267283D01*
X140397564Y-118301791D01*
X140401787Y-118304151D01*
X140401791Y-118304154D01*
X140441342Y-118326258D01*
X140577398Y-118402297D01*
X140581996Y-118403791D01*
X140768724Y-118464463D01*
X140768726Y-118464464D01*
X140773329Y-118465959D01*
X140977894Y-118490351D01*
X140982716Y-118489980D01*
X140982719Y-118489980D01*
X141050541Y-118484761D01*
X141183300Y-118474546D01*
X141381725Y-118419145D01*
X141386038Y-118416966D01*
X141386044Y-118416964D01*
X141561289Y-118328441D01*
X141561291Y-118328440D01*
X141565610Y-118326258D01*
X141600943Y-118298653D01*
X141724135Y-118202406D01*
X141724139Y-118202402D01*
X141727951Y-118199424D01*
X141862564Y-118043472D01*
X141881231Y-118010613D01*
X141961934Y-117868550D01*
X141961935Y-117868547D01*
X141964323Y-117864344D01*
X141977882Y-117823586D01*
X142027824Y-117673454D01*
X142027824Y-117673452D01*
X142029351Y-117668863D01*
X142055171Y-117464474D01*
X142055583Y-117435000D01*
X142035480Y-117229970D01*
X141975935Y-117032749D01*
X141879218Y-116850849D01*
X141749011Y-116691200D01*
X141590275Y-116559882D01*
X141409055Y-116461897D01*
X141323845Y-116435520D01*
X141216875Y-116402407D01*
X141216871Y-116402406D01*
X141212254Y-116400977D01*
X141207446Y-116400472D01*
X141207443Y-116400471D01*
X141012185Y-116379949D01*
X141012183Y-116379949D01*
X141007369Y-116379443D01*
X140947354Y-116384905D01*
X140807022Y-116397675D01*
X140807017Y-116397676D01*
X140802203Y-116398114D01*
X140787617Y-116402407D01*
X140609222Y-116454911D01*
X140609218Y-116454913D01*
X140604572Y-116456280D01*
X140602503Y-116457361D01*
X140542259Y-116461576D01*
X140496202Y-116435520D01*
X139475186Y-115414504D01*
X139447409Y-115359987D01*
X139456980Y-115299555D01*
X139500245Y-115256290D01*
X139545190Y-115245500D01*
X139938541Y-115245500D01*
X139996732Y-115264407D01*
X140026593Y-115299248D01*
X140057809Y-115359987D01*
X140112712Y-115466818D01*
X140240677Y-115628270D01*
X140244357Y-115631402D01*
X140244359Y-115631404D01*
X140357017Y-115727283D01*
X140397564Y-115761791D01*
X140401787Y-115764151D01*
X140401791Y-115764154D01*
X140441342Y-115786258D01*
X140577398Y-115862297D01*
X140581996Y-115863791D01*
X140768724Y-115924463D01*
X140768726Y-115924464D01*
X140773329Y-115925959D01*
X140977894Y-115950351D01*
X140982716Y-115949980D01*
X140982719Y-115949980D01*
X141050541Y-115944761D01*
X141183300Y-115934546D01*
X141381725Y-115879145D01*
X141386038Y-115876966D01*
X141386044Y-115876964D01*
X141561289Y-115788441D01*
X141561291Y-115788440D01*
X141565610Y-115786258D01*
X141600943Y-115758653D01*
X141724135Y-115662406D01*
X141724139Y-115662402D01*
X141727951Y-115659424D01*
X141862564Y-115503472D01*
X141881231Y-115470613D01*
X141961934Y-115328550D01*
X141961935Y-115328547D01*
X141964323Y-115324344D01*
X141972570Y-115299555D01*
X142027824Y-115133454D01*
X142027824Y-115133452D01*
X142029351Y-115128863D01*
X142055171Y-114924474D01*
X142055583Y-114895000D01*
X142035480Y-114689970D01*
X141975935Y-114492749D01*
X141879218Y-114310849D01*
X141749011Y-114151200D01*
X141590275Y-114019882D01*
X141409055Y-113921897D01*
X141345855Y-113902333D01*
X141216875Y-113862407D01*
X141216871Y-113862406D01*
X141212254Y-113860977D01*
X141207446Y-113860472D01*
X141207443Y-113860471D01*
X141012185Y-113839949D01*
X141012183Y-113839949D01*
X141007369Y-113839443D01*
X140947354Y-113844905D01*
X140807022Y-113857675D01*
X140807017Y-113857676D01*
X140802203Y-113858114D01*
X140604572Y-113916280D01*
X140600288Y-113918519D01*
X140600287Y-113918520D01*
X140589428Y-113924197D01*
X140422002Y-114011726D01*
X140418231Y-114014758D01*
X140265220Y-114137781D01*
X140265217Y-114137783D01*
X140261447Y-114140815D01*
X140258333Y-114144526D01*
X140258332Y-114144527D01*
X140249585Y-114154952D01*
X140129024Y-114298630D01*
X140126689Y-114302878D01*
X140126688Y-114302879D01*
X140119955Y-114315126D01*
X140029776Y-114479162D01*
X140028310Y-114483784D01*
X140028003Y-114484500D01*
X139987701Y-114530537D01*
X139937008Y-114544500D01*
X139381190Y-114544500D01*
X139322999Y-114525593D01*
X139311186Y-114515504D01*
X133815186Y-109019504D01*
X133787409Y-108964987D01*
X133796980Y-108904555D01*
X133840245Y-108861290D01*
X133885190Y-108850500D01*
X136958810Y-108850500D01*
X137017001Y-108869407D01*
X137028814Y-108879496D01*
X140001351Y-111852033D01*
X140029128Y-111906550D01*
X140025713Y-111951970D01*
X139967484Y-112135532D01*
X139966944Y-112140344D01*
X139966944Y-112140345D01*
X139965865Y-112149970D01*
X139944520Y-112340262D01*
X139961759Y-112545553D01*
X140018544Y-112743586D01*
X140112712Y-112926818D01*
X140240677Y-113088270D01*
X140244357Y-113091402D01*
X140244359Y-113091404D01*
X140357017Y-113187283D01*
X140397564Y-113221791D01*
X140401787Y-113224151D01*
X140401791Y-113224154D01*
X140441342Y-113246258D01*
X140577398Y-113322297D01*
X140581996Y-113323791D01*
X140768724Y-113384463D01*
X140768726Y-113384464D01*
X140773329Y-113385959D01*
X140977894Y-113410351D01*
X140982716Y-113409980D01*
X140982719Y-113409980D01*
X141050541Y-113404761D01*
X141183300Y-113394546D01*
X141381725Y-113339145D01*
X141386038Y-113336966D01*
X141386044Y-113336964D01*
X141561289Y-113248441D01*
X141561291Y-113248440D01*
X141565610Y-113246258D01*
X141600943Y-113218653D01*
X141724135Y-113122406D01*
X141724139Y-113122402D01*
X141727951Y-113119424D01*
X141862564Y-112963472D01*
X141881231Y-112930613D01*
X141961934Y-112788550D01*
X141961935Y-112788547D01*
X141964323Y-112784344D01*
X141977882Y-112743586D01*
X142027824Y-112593454D01*
X142027824Y-112593452D01*
X142029351Y-112588863D01*
X142055171Y-112384474D01*
X142055583Y-112355000D01*
X142035480Y-112149970D01*
X141975935Y-111952749D01*
X141879218Y-111770849D01*
X141749011Y-111611200D01*
X141590275Y-111479882D01*
X141409055Y-111381897D01*
X141323845Y-111355520D01*
X141216875Y-111322407D01*
X141216871Y-111322406D01*
X141212254Y-111320977D01*
X141207446Y-111320472D01*
X141207443Y-111320471D01*
X141012185Y-111299949D01*
X141012183Y-111299949D01*
X141007369Y-111299443D01*
X140947354Y-111304905D01*
X140807022Y-111317675D01*
X140807017Y-111317676D01*
X140802203Y-111318114D01*
X140787617Y-111322407D01*
X140609222Y-111374911D01*
X140609218Y-111374913D01*
X140604572Y-111376280D01*
X140602503Y-111377361D01*
X140542259Y-111381576D01*
X140496202Y-111355520D01*
X137660186Y-108519504D01*
X137632409Y-108464987D01*
X137641980Y-108404555D01*
X137685245Y-108361290D01*
X137730190Y-108350500D01*
X138998810Y-108350500D01*
X139057001Y-108369407D01*
X139068814Y-108379496D01*
X140001351Y-109312033D01*
X140029128Y-109366550D01*
X140025713Y-109411970D01*
X139967484Y-109595532D01*
X139966944Y-109600344D01*
X139966944Y-109600345D01*
X139948418Y-109765514D01*
X139944520Y-109800262D01*
X139961759Y-110005553D01*
X140018544Y-110203586D01*
X140112712Y-110386818D01*
X140240677Y-110548270D01*
X140244357Y-110551402D01*
X140244359Y-110551404D01*
X140357017Y-110647283D01*
X140397564Y-110681791D01*
X140401787Y-110684151D01*
X140401791Y-110684154D01*
X140441342Y-110706258D01*
X140577398Y-110782297D01*
X140581996Y-110783791D01*
X140768724Y-110844463D01*
X140768726Y-110844464D01*
X140773329Y-110845959D01*
X140977894Y-110870351D01*
X140982716Y-110869980D01*
X140982719Y-110869980D01*
X141050541Y-110864761D01*
X141183300Y-110854546D01*
X141381725Y-110799145D01*
X141386038Y-110796966D01*
X141386044Y-110796964D01*
X141561289Y-110708441D01*
X141561291Y-110708440D01*
X141565610Y-110706258D01*
X141600943Y-110678653D01*
X141724135Y-110582406D01*
X141724139Y-110582402D01*
X141727951Y-110579424D01*
X141862564Y-110423472D01*
X141881231Y-110390613D01*
X141961934Y-110248550D01*
X141961935Y-110248547D01*
X141964323Y-110244344D01*
X141977882Y-110203586D01*
X142027824Y-110053454D01*
X142027824Y-110053452D01*
X142029351Y-110048863D01*
X142055171Y-109844474D01*
X142055583Y-109815000D01*
X142053667Y-109795454D01*
X142035952Y-109614780D01*
X142035951Y-109614776D01*
X142035480Y-109609970D01*
X141975935Y-109412749D01*
X141879218Y-109230849D01*
X141749011Y-109071200D01*
X141745282Y-109068115D01*
X141594002Y-108942965D01*
X141594000Y-108942964D01*
X141590275Y-108939882D01*
X141409055Y-108841897D01*
X141323845Y-108815520D01*
X141216875Y-108782407D01*
X141216871Y-108782406D01*
X141212254Y-108780977D01*
X141207446Y-108780472D01*
X141207443Y-108780471D01*
X141012185Y-108759949D01*
X141012183Y-108759949D01*
X141007369Y-108759443D01*
X140947354Y-108764905D01*
X140807022Y-108777675D01*
X140807017Y-108777676D01*
X140802203Y-108778114D01*
X140787617Y-108782407D01*
X140609222Y-108834911D01*
X140609218Y-108834913D01*
X140604572Y-108836280D01*
X140602503Y-108837361D01*
X140542259Y-108841576D01*
X140496202Y-108815520D01*
X139700186Y-108019504D01*
X139672409Y-107964987D01*
X139681980Y-107904555D01*
X139725245Y-107861290D01*
X139770190Y-107850500D01*
X140067771Y-107850500D01*
X140125962Y-107869407D01*
X140145357Y-107888006D01*
X140240677Y-108008270D01*
X140244357Y-108011402D01*
X140244359Y-108011404D01*
X140345254Y-108097272D01*
X140397564Y-108141791D01*
X140401787Y-108144151D01*
X140401791Y-108144154D01*
X140441342Y-108166258D01*
X140577398Y-108242297D01*
X140581996Y-108243791D01*
X140768724Y-108304463D01*
X140768726Y-108304464D01*
X140773329Y-108305959D01*
X140977894Y-108330351D01*
X140982716Y-108329980D01*
X140982719Y-108329980D01*
X141050541Y-108324761D01*
X141183300Y-108314546D01*
X141381725Y-108259145D01*
X141386038Y-108256966D01*
X141386044Y-108256964D01*
X141561289Y-108168441D01*
X141561291Y-108168440D01*
X141565610Y-108166258D01*
X141653909Y-108097272D01*
X141724135Y-108042406D01*
X141724139Y-108042402D01*
X141727951Y-108039424D01*
X141745146Y-108019504D01*
X141792203Y-107964987D01*
X141862564Y-107883472D01*
X141904647Y-107809393D01*
X141961934Y-107708550D01*
X141961935Y-107708547D01*
X141964323Y-107704344D01*
X141967432Y-107695000D01*
X142027824Y-107513454D01*
X142027824Y-107513452D01*
X142029351Y-107508863D01*
X142055171Y-107304474D01*
X142055583Y-107275000D01*
X142055313Y-107272244D01*
X142035952Y-107074780D01*
X142035951Y-107074776D01*
X142035480Y-107069970D01*
X142034004Y-107065079D01*
X141977333Y-106877380D01*
X141975935Y-106872749D01*
X141879218Y-106690849D01*
X141749011Y-106531200D01*
X141650253Y-106449500D01*
X141594002Y-106402965D01*
X141594000Y-106402964D01*
X141590275Y-106399882D01*
X141409055Y-106301897D01*
X141313029Y-106272172D01*
X141216875Y-106242407D01*
X141216871Y-106242406D01*
X141212254Y-106240977D01*
X141207446Y-106240472D01*
X141207443Y-106240471D01*
X141012185Y-106219949D01*
X141012183Y-106219949D01*
X141007369Y-106219443D01*
X140947354Y-106224905D01*
X140807022Y-106237675D01*
X140807017Y-106237676D01*
X140802203Y-106238114D01*
X140604572Y-106296280D01*
X140600288Y-106298519D01*
X140600287Y-106298520D01*
X140514448Y-106343396D01*
X140454119Y-106353600D01*
X140399315Y-106326395D01*
X140370967Y-106272172D01*
X140379905Y-106211643D01*
X140398577Y-106185658D01*
X140779496Y-105804739D01*
X140834013Y-105776962D01*
X140861222Y-105776439D01*
X140888750Y-105779721D01*
X140977894Y-105790351D01*
X140982716Y-105789980D01*
X140982719Y-105789980D01*
X141050541Y-105784761D01*
X141183300Y-105774546D01*
X141381725Y-105719145D01*
X141386038Y-105716966D01*
X141386044Y-105716964D01*
X141561289Y-105628441D01*
X141561291Y-105628440D01*
X141565610Y-105626258D01*
X141569427Y-105623276D01*
X141724135Y-105502406D01*
X141724139Y-105502402D01*
X141727951Y-105499424D01*
X141862564Y-105343472D01*
X141864957Y-105339260D01*
X141961934Y-105168550D01*
X141961935Y-105168547D01*
X141964323Y-105164344D01*
X141967724Y-105154122D01*
X142027824Y-104973454D01*
X142027824Y-104973452D01*
X142029351Y-104968863D01*
X142033263Y-104937900D01*
X142054823Y-104767228D01*
X142055171Y-104764474D01*
X142055583Y-104735000D01*
X142049861Y-104676639D01*
X142035952Y-104534780D01*
X142035951Y-104534776D01*
X142035480Y-104529970D01*
X141975935Y-104332749D01*
X141879218Y-104150849D01*
X141749011Y-103991200D01*
X141590275Y-103859882D01*
X141409055Y-103761897D01*
X141345855Y-103742333D01*
X141216875Y-103702407D01*
X141216871Y-103702406D01*
X141212254Y-103700977D01*
X141207446Y-103700472D01*
X141207443Y-103700471D01*
X141012185Y-103679949D01*
X141012183Y-103679949D01*
X141007369Y-103679443D01*
X140947354Y-103684905D01*
X140807022Y-103697675D01*
X140807017Y-103697676D01*
X140802203Y-103698114D01*
X140604572Y-103756280D01*
X140600288Y-103758519D01*
X140600287Y-103758520D01*
X140589428Y-103764197D01*
X140422002Y-103851726D01*
X140418231Y-103854758D01*
X140265220Y-103977781D01*
X140265217Y-103977783D01*
X140261447Y-103980815D01*
X140258333Y-103984526D01*
X140258332Y-103984527D01*
X140155170Y-104107471D01*
X140129024Y-104138630D01*
X140126689Y-104142878D01*
X140126688Y-104142879D01*
X140122028Y-104151356D01*
X140029776Y-104319162D01*
X140028313Y-104323775D01*
X140028311Y-104323779D01*
X140003328Y-104402537D01*
X139967484Y-104515532D01*
X139966944Y-104520344D01*
X139966944Y-104520345D01*
X139947785Y-104691157D01*
X139944520Y-104720262D01*
X139955415Y-104850000D01*
X139957794Y-104878332D01*
X139943822Y-104937900D01*
X139929145Y-104956620D01*
X138765261Y-106120504D01*
X138710744Y-106148281D01*
X138695257Y-106149500D01*
X125287209Y-106149500D01*
X125271723Y-106148281D01*
X125254848Y-106145608D01*
X125254843Y-106145608D01*
X125251000Y-106144999D01*
X125247106Y-106144999D01*
X124726075Y-106145000D01*
X124260439Y-106145000D01*
X124255589Y-106144881D01*
X124253455Y-106144776D01*
X124253428Y-106144775D01*
X124252857Y-106144747D01*
X124252274Y-106144733D01*
X124252255Y-106144732D01*
X124243374Y-106144514D01*
X124243348Y-106144514D01*
X124242790Y-106144500D01*
X119757198Y-106144500D01*
X119756635Y-106144514D01*
X119756621Y-106144514D01*
X119747737Y-106144732D01*
X119747700Y-106144733D01*
X119747105Y-106144748D01*
X119746471Y-106144779D01*
X119746422Y-106144781D01*
X119744422Y-106144879D01*
X119739559Y-106144999D01*
X119106461Y-106145000D01*
X118749000Y-106145000D01*
X118716856Y-106147530D01*
X118708957Y-106148781D01*
X118693471Y-106150000D01*
X118421488Y-106150000D01*
X118408803Y-106154122D01*
X118407986Y-106155245D01*
X118407475Y-106161322D01*
X117200500Y-106161322D01*
X117200500Y-105661322D01*
X118407475Y-105661322D01*
X118409730Y-105676639D01*
X118414240Y-105691157D01*
X118421746Y-105706444D01*
X118430419Y-105767012D01*
X118421822Y-105793551D01*
X118414033Y-105809486D01*
X118409551Y-105823986D01*
X118408020Y-105834483D01*
X118410267Y-105847632D01*
X118411286Y-105848626D01*
X118417166Y-105850000D01*
X119084320Y-105850000D01*
X119097005Y-105845878D01*
X119100000Y-105841757D01*
X119100000Y-105834320D01*
X119400000Y-105834320D01*
X119404122Y-105847005D01*
X119408243Y-105850000D01*
X120078512Y-105850000D01*
X120091197Y-105845878D01*
X120092014Y-105844755D01*
X120092525Y-105838678D01*
X120090270Y-105823361D01*
X120085760Y-105808843D01*
X120078254Y-105793556D01*
X120069581Y-105732988D01*
X120078178Y-105706449D01*
X120085967Y-105690514D01*
X120090449Y-105676014D01*
X120091980Y-105665517D01*
X120091263Y-105661322D01*
X123907475Y-105661322D01*
X123909730Y-105676639D01*
X123914240Y-105691157D01*
X123921746Y-105706444D01*
X123930419Y-105767012D01*
X123921822Y-105793551D01*
X123914033Y-105809486D01*
X123909551Y-105823986D01*
X123908020Y-105834483D01*
X123910267Y-105847632D01*
X123911286Y-105848626D01*
X123917166Y-105850000D01*
X124584320Y-105850000D01*
X124597005Y-105845878D01*
X124600000Y-105841757D01*
X124600000Y-105834320D01*
X124900000Y-105834320D01*
X124904122Y-105847005D01*
X124908243Y-105850000D01*
X125578512Y-105850000D01*
X125591197Y-105845878D01*
X125592014Y-105844755D01*
X125592525Y-105838678D01*
X125590270Y-105823361D01*
X125585760Y-105808843D01*
X125578254Y-105793556D01*
X125569581Y-105732988D01*
X125578178Y-105706449D01*
X125585967Y-105690514D01*
X125590449Y-105676014D01*
X125591980Y-105665517D01*
X125589733Y-105652368D01*
X125588714Y-105651374D01*
X125582834Y-105650000D01*
X124915680Y-105650000D01*
X124902995Y-105654122D01*
X124900000Y-105658243D01*
X124900000Y-105834320D01*
X124600000Y-105834320D01*
X124600000Y-105665680D01*
X124595878Y-105652995D01*
X124591757Y-105650000D01*
X123921488Y-105650000D01*
X123908803Y-105654122D01*
X123907986Y-105655245D01*
X123907475Y-105661322D01*
X120091263Y-105661322D01*
X120089733Y-105652368D01*
X120088714Y-105651374D01*
X120082834Y-105650000D01*
X119415680Y-105650000D01*
X119402995Y-105654122D01*
X119400000Y-105658243D01*
X119400000Y-105834320D01*
X119100000Y-105834320D01*
X119100000Y-105665680D01*
X119095878Y-105652995D01*
X119091757Y-105650000D01*
X118421488Y-105650000D01*
X118408803Y-105654122D01*
X118407986Y-105655245D01*
X118407475Y-105661322D01*
X117200500Y-105661322D01*
X117200500Y-105161322D01*
X118407475Y-105161322D01*
X118409730Y-105176639D01*
X118414240Y-105191157D01*
X118421746Y-105206444D01*
X118430419Y-105267012D01*
X118421822Y-105293551D01*
X118414033Y-105309486D01*
X118409551Y-105323986D01*
X118408020Y-105334483D01*
X118410267Y-105347632D01*
X118411286Y-105348626D01*
X118417166Y-105350000D01*
X119084320Y-105350000D01*
X119097005Y-105345878D01*
X119100000Y-105341757D01*
X119100000Y-105334320D01*
X119400000Y-105334320D01*
X119404122Y-105347005D01*
X119408243Y-105350000D01*
X120078512Y-105350000D01*
X120091197Y-105345878D01*
X120092014Y-105344755D01*
X120092525Y-105338678D01*
X120090270Y-105323361D01*
X120085760Y-105308843D01*
X120078254Y-105293556D01*
X120069581Y-105232988D01*
X120078178Y-105206449D01*
X120085967Y-105190514D01*
X120090449Y-105176014D01*
X120091980Y-105165517D01*
X120091263Y-105161322D01*
X123907475Y-105161322D01*
X123909730Y-105176639D01*
X123914240Y-105191157D01*
X123921746Y-105206444D01*
X123930419Y-105267012D01*
X123921822Y-105293551D01*
X123914033Y-105309486D01*
X123909551Y-105323986D01*
X123908020Y-105334483D01*
X123910267Y-105347632D01*
X123911286Y-105348626D01*
X123917166Y-105350000D01*
X124584320Y-105350000D01*
X124597005Y-105345878D01*
X124600000Y-105341757D01*
X124600000Y-105334320D01*
X124900000Y-105334320D01*
X124904122Y-105347005D01*
X124908243Y-105350000D01*
X125578512Y-105350000D01*
X125591197Y-105345878D01*
X125592014Y-105344755D01*
X125592525Y-105338678D01*
X125590270Y-105323361D01*
X125585760Y-105308843D01*
X125578254Y-105293556D01*
X125569581Y-105232988D01*
X125578178Y-105206449D01*
X125585967Y-105190514D01*
X125590449Y-105176014D01*
X125591980Y-105165517D01*
X125589733Y-105152368D01*
X125588714Y-105151374D01*
X125582834Y-105150000D01*
X124915680Y-105150000D01*
X124902995Y-105154122D01*
X124900000Y-105158243D01*
X124900000Y-105334320D01*
X124600000Y-105334320D01*
X124600000Y-105165680D01*
X124595878Y-105152995D01*
X124591757Y-105150000D01*
X123921488Y-105150000D01*
X123908803Y-105154122D01*
X123907986Y-105155245D01*
X123907475Y-105161322D01*
X120091263Y-105161322D01*
X120089733Y-105152368D01*
X120088714Y-105151374D01*
X120082834Y-105150000D01*
X119415680Y-105150000D01*
X119402995Y-105154122D01*
X119400000Y-105158243D01*
X119400000Y-105334320D01*
X119100000Y-105334320D01*
X119100000Y-105165680D01*
X119095878Y-105152995D01*
X119091757Y-105150000D01*
X118421488Y-105150000D01*
X118408803Y-105154122D01*
X118407986Y-105155245D01*
X118407475Y-105161322D01*
X117200500Y-105161322D01*
X117200500Y-104661322D01*
X118407475Y-104661322D01*
X118409730Y-104676639D01*
X118414240Y-104691157D01*
X118421746Y-104706444D01*
X118430419Y-104767012D01*
X118421822Y-104793551D01*
X118414033Y-104809486D01*
X118409551Y-104823986D01*
X118408020Y-104834483D01*
X118410267Y-104847632D01*
X118411286Y-104848626D01*
X118417166Y-104850000D01*
X119084320Y-104850000D01*
X119097005Y-104845878D01*
X119100000Y-104841757D01*
X119100000Y-104834320D01*
X119400000Y-104834320D01*
X119404122Y-104847005D01*
X119408243Y-104850000D01*
X120078512Y-104850000D01*
X120091197Y-104845878D01*
X120092014Y-104844755D01*
X120092525Y-104838678D01*
X120090270Y-104823361D01*
X120085760Y-104808843D01*
X120078254Y-104793556D01*
X120069581Y-104732988D01*
X120078178Y-104706449D01*
X120085967Y-104690514D01*
X120090449Y-104676014D01*
X120091980Y-104665517D01*
X120091263Y-104661322D01*
X123907475Y-104661322D01*
X123909730Y-104676639D01*
X123914240Y-104691157D01*
X123921746Y-104706444D01*
X123930419Y-104767012D01*
X123921822Y-104793551D01*
X123914033Y-104809486D01*
X123909551Y-104823986D01*
X123908020Y-104834483D01*
X123910267Y-104847632D01*
X123911286Y-104848626D01*
X123917166Y-104850000D01*
X124584320Y-104850000D01*
X124597005Y-104845878D01*
X124600000Y-104841757D01*
X124600000Y-104834320D01*
X124900000Y-104834320D01*
X124904122Y-104847005D01*
X124908243Y-104850000D01*
X125578512Y-104850000D01*
X125591197Y-104845878D01*
X125592014Y-104844755D01*
X125592525Y-104838678D01*
X125590270Y-104823361D01*
X125585760Y-104808843D01*
X125578254Y-104793556D01*
X125569581Y-104732988D01*
X125578178Y-104706449D01*
X125585967Y-104690514D01*
X125590449Y-104676014D01*
X125591980Y-104665517D01*
X125589733Y-104652368D01*
X125588714Y-104651374D01*
X125582834Y-104650000D01*
X124915680Y-104650000D01*
X124902995Y-104654122D01*
X124900000Y-104658243D01*
X124900000Y-104834320D01*
X124600000Y-104834320D01*
X124600000Y-104665680D01*
X124595878Y-104652995D01*
X124591757Y-104650000D01*
X123921488Y-104650000D01*
X123908803Y-104654122D01*
X123907986Y-104655245D01*
X123907475Y-104661322D01*
X120091263Y-104661322D01*
X120089733Y-104652368D01*
X120088714Y-104651374D01*
X120082834Y-104650000D01*
X119415680Y-104650000D01*
X119402995Y-104654122D01*
X119400000Y-104658243D01*
X119400000Y-104834320D01*
X119100000Y-104834320D01*
X119100000Y-104665680D01*
X119095878Y-104652995D01*
X119091757Y-104650000D01*
X118421488Y-104650000D01*
X118408803Y-104654122D01*
X118407986Y-104655245D01*
X118407475Y-104661322D01*
X117200500Y-104661322D01*
X117200500Y-104334483D01*
X118408020Y-104334483D01*
X118410267Y-104347632D01*
X118411286Y-104348626D01*
X118417166Y-104350000D01*
X118709634Y-104350000D01*
X118725120Y-104351219D01*
X118745152Y-104354392D01*
X118745157Y-104354392D01*
X118749000Y-104355001D01*
X118752894Y-104355001D01*
X119273925Y-104355000D01*
X119739561Y-104355000D01*
X119744411Y-104355119D01*
X119746545Y-104355224D01*
X119746572Y-104355225D01*
X119747143Y-104355253D01*
X119747726Y-104355267D01*
X119747745Y-104355268D01*
X119756626Y-104355486D01*
X119756652Y-104355486D01*
X119757210Y-104355500D01*
X123458112Y-104355500D01*
X123484334Y-104359302D01*
X123486019Y-104359981D01*
X123490642Y-104360884D01*
X123490646Y-104360885D01*
X123688627Y-104399548D01*
X123688634Y-104399549D01*
X123692122Y-104400230D01*
X123697643Y-104400500D01*
X132448699Y-104400500D01*
X132459686Y-104401427D01*
X132459688Y-104401402D01*
X132464388Y-104401747D01*
X132469034Y-104402537D01*
X132561290Y-104400524D01*
X132563450Y-104400500D01*
X132602469Y-104400500D01*
X132610756Y-104399709D01*
X132617984Y-104399287D01*
X132674265Y-104398059D01*
X132674266Y-104398059D01*
X132678981Y-104397956D01*
X132712990Y-104390634D01*
X132724421Y-104388865D01*
X132754351Y-104386009D01*
X132754352Y-104386009D01*
X132759046Y-104385561D01*
X132763569Y-104384234D01*
X132763575Y-104384233D01*
X132817599Y-104368384D01*
X132824627Y-104366599D01*
X132836197Y-104364108D01*
X132879662Y-104354751D01*
X132879669Y-104354749D01*
X132884271Y-104353758D01*
X132888605Y-104351914D01*
X132888608Y-104351913D01*
X132916285Y-104340137D01*
X132927175Y-104336238D01*
X132933157Y-104334483D01*
X132960549Y-104326447D01*
X132964736Y-104324291D01*
X132964745Y-104324287D01*
X133014797Y-104298508D01*
X133021343Y-104295434D01*
X133077502Y-104271538D01*
X133081409Y-104268908D01*
X133081412Y-104268906D01*
X133106356Y-104252112D01*
X133116317Y-104246221D01*
X133143054Y-104232451D01*
X133143058Y-104232448D01*
X133147239Y-104230295D01*
X133195220Y-104192606D01*
X133201085Y-104188337D01*
X133248744Y-104156251D01*
X133248749Y-104156247D01*
X133251699Y-104154261D01*
X133255794Y-104150548D01*
X133277365Y-104128977D01*
X133286215Y-104121128D01*
X133308672Y-104103488D01*
X133308673Y-104103487D01*
X133312379Y-104100576D01*
X133353477Y-104053215D01*
X133358245Y-104048097D01*
X135051937Y-102354405D01*
X139857898Y-102354405D01*
X139858995Y-102371145D01*
X139860408Y-102380064D01*
X139910200Y-102576121D01*
X139913220Y-102584649D01*
X139997904Y-102768341D01*
X140002422Y-102776167D01*
X140119171Y-102941363D01*
X140125035Y-102948229D01*
X140269931Y-103089381D01*
X140276954Y-103095068D01*
X140445138Y-103207446D01*
X140453093Y-103211764D01*
X140638929Y-103291606D01*
X140647540Y-103294404D01*
X140839830Y-103337914D01*
X140847167Y-103335840D01*
X140849787Y-103332514D01*
X140850000Y-103331317D01*
X140850000Y-103319679D01*
X141150000Y-103319679D01*
X141154122Y-103332364D01*
X141155292Y-103333215D01*
X141161272Y-103333725D01*
X141265115Y-103318668D01*
X141273914Y-103316556D01*
X141465450Y-103251538D01*
X141473714Y-103247858D01*
X141650194Y-103149026D01*
X141657652Y-103143900D01*
X141813157Y-103014568D01*
X141819568Y-103008157D01*
X141948900Y-102852652D01*
X141954026Y-102845194D01*
X142052858Y-102668714D01*
X142056538Y-102660450D01*
X142121556Y-102468914D01*
X142123668Y-102460115D01*
X142138109Y-102360518D01*
X142135850Y-102347372D01*
X142134815Y-102346363D01*
X142128968Y-102345000D01*
X141165680Y-102345000D01*
X141152995Y-102349122D01*
X141150000Y-102353243D01*
X141150000Y-103319679D01*
X140850000Y-103319679D01*
X140850000Y-102360680D01*
X140845878Y-102347995D01*
X140841757Y-102345000D01*
X139872962Y-102345000D01*
X139860277Y-102349122D01*
X139858202Y-102351978D01*
X139857898Y-102354405D01*
X135051937Y-102354405D01*
X135376914Y-102029428D01*
X139861487Y-102029428D01*
X139864090Y-102042511D01*
X139865663Y-102043965D01*
X139870378Y-102045000D01*
X140834320Y-102045000D01*
X140847005Y-102040878D01*
X140850000Y-102036757D01*
X140850000Y-102029320D01*
X141150000Y-102029320D01*
X141154122Y-102042005D01*
X141158243Y-102045000D01*
X142125464Y-102045000D01*
X142138149Y-102040878D01*
X142139818Y-102038582D01*
X142140222Y-102034966D01*
X142136003Y-101989048D01*
X142134356Y-101980164D01*
X142079449Y-101785481D01*
X142076208Y-101777037D01*
X141986745Y-101595624D01*
X141982020Y-101587914D01*
X141860994Y-101425840D01*
X141854945Y-101419122D01*
X141706405Y-101281814D01*
X141699240Y-101276315D01*
X141528163Y-101168374D01*
X141520110Y-101164271D01*
X141332229Y-101089314D01*
X141323571Y-101086749D01*
X141165379Y-101055283D01*
X141152132Y-101056851D01*
X141152100Y-101056881D01*
X141150000Y-101064928D01*
X141150000Y-102029320D01*
X140850000Y-102029320D01*
X140850000Y-101069517D01*
X140845878Y-101056832D01*
X140845274Y-101056393D01*
X140838127Y-101055877D01*
X140705559Y-101078657D01*
X140696823Y-101080998D01*
X140507050Y-101151009D01*
X140498887Y-101154902D01*
X140325047Y-101258326D01*
X140317745Y-101263631D01*
X140165657Y-101397010D01*
X140159434Y-101403568D01*
X140034209Y-101562415D01*
X140029284Y-101569998D01*
X139935097Y-101749018D01*
X139931643Y-101757358D01*
X139871658Y-101950538D01*
X139869777Y-101959389D01*
X139861487Y-102029428D01*
X135376914Y-102029428D01*
X137591937Y-99814405D01*
X139857898Y-99814405D01*
X139858995Y-99831145D01*
X139860408Y-99840064D01*
X139910200Y-100036121D01*
X139913220Y-100044649D01*
X139997904Y-100228341D01*
X140002422Y-100236167D01*
X140119171Y-100401363D01*
X140125035Y-100408229D01*
X140269931Y-100549381D01*
X140276954Y-100555068D01*
X140445138Y-100667446D01*
X140453093Y-100671764D01*
X140638929Y-100751606D01*
X140647540Y-100754404D01*
X140839830Y-100797914D01*
X140847167Y-100795840D01*
X140849787Y-100792514D01*
X140850000Y-100791317D01*
X140850000Y-100779679D01*
X141150000Y-100779679D01*
X141154122Y-100792364D01*
X141155292Y-100793215D01*
X141161272Y-100793725D01*
X141265115Y-100778668D01*
X141273914Y-100776556D01*
X141465450Y-100711538D01*
X141473714Y-100707858D01*
X141650194Y-100609026D01*
X141657652Y-100603900D01*
X141813157Y-100474568D01*
X141819568Y-100468157D01*
X141948900Y-100312652D01*
X141954026Y-100305194D01*
X142052858Y-100128714D01*
X142056538Y-100120450D01*
X142121556Y-99928914D01*
X142123668Y-99920115D01*
X142138109Y-99820518D01*
X142135850Y-99807372D01*
X142134815Y-99806363D01*
X142128968Y-99805000D01*
X141165680Y-99805000D01*
X141152995Y-99809122D01*
X141150000Y-99813243D01*
X141150000Y-100779679D01*
X140850000Y-100779679D01*
X140850000Y-99820680D01*
X140845878Y-99807995D01*
X140841757Y-99805000D01*
X139872962Y-99805000D01*
X139860277Y-99809122D01*
X139858202Y-99811978D01*
X139857898Y-99814405D01*
X137591937Y-99814405D01*
X137916914Y-99489428D01*
X139861487Y-99489428D01*
X139864090Y-99502511D01*
X139865663Y-99503965D01*
X139870378Y-99505000D01*
X140834320Y-99505000D01*
X140847005Y-99500878D01*
X140850000Y-99496757D01*
X140850000Y-99489320D01*
X141150000Y-99489320D01*
X141154122Y-99502005D01*
X141158243Y-99505000D01*
X142125464Y-99505000D01*
X142138149Y-99500878D01*
X142139818Y-99498582D01*
X142140222Y-99494966D01*
X142136003Y-99449048D01*
X142134356Y-99440164D01*
X142079449Y-99245481D01*
X142076208Y-99237037D01*
X141986745Y-99055624D01*
X141982020Y-99047914D01*
X141860994Y-98885840D01*
X141854945Y-98879122D01*
X141706405Y-98741814D01*
X141699240Y-98736315D01*
X141528163Y-98628374D01*
X141520110Y-98624271D01*
X141332229Y-98549314D01*
X141323571Y-98546749D01*
X141165379Y-98515283D01*
X141152132Y-98516851D01*
X141152100Y-98516881D01*
X141150000Y-98524928D01*
X141150000Y-99489320D01*
X140850000Y-99489320D01*
X140850000Y-98529517D01*
X140845878Y-98516832D01*
X140845274Y-98516393D01*
X140838127Y-98515877D01*
X140705559Y-98538657D01*
X140696823Y-98540998D01*
X140507050Y-98611009D01*
X140498887Y-98614902D01*
X140325047Y-98718326D01*
X140317745Y-98723631D01*
X140165657Y-98857010D01*
X140159434Y-98863568D01*
X140034209Y-99022415D01*
X140029284Y-99029998D01*
X139935097Y-99209018D01*
X139931643Y-99217358D01*
X139871658Y-99410538D01*
X139869777Y-99419389D01*
X139861487Y-99489428D01*
X137916914Y-99489428D01*
X139161846Y-98244496D01*
X139216363Y-98216719D01*
X139231850Y-98215500D01*
X140913437Y-98215500D01*
X140927631Y-98216523D01*
X140945996Y-98219186D01*
X140950707Y-98218968D01*
X140950708Y-98218968D01*
X141023345Y-98215606D01*
X141027922Y-98215500D01*
X141052469Y-98215500D01*
X141054814Y-98215276D01*
X141054820Y-98215276D01*
X141062520Y-98214541D01*
X141075355Y-98213317D01*
X141080144Y-98212977D01*
X141133167Y-98210523D01*
X141151060Y-98209695D01*
X141151061Y-98209695D01*
X141155767Y-98209477D01*
X141160345Y-98208374D01*
X141160350Y-98208373D01*
X141175285Y-98204774D01*
X141189073Y-98202467D01*
X141199982Y-98201426D01*
X141209046Y-98200561D01*
X141281672Y-98179255D01*
X141286346Y-98178007D01*
X141305601Y-98173367D01*
X141359918Y-98160276D01*
X141378189Y-98151969D01*
X141391290Y-98147097D01*
X141410549Y-98141447D01*
X141414734Y-98139292D01*
X141414738Y-98139290D01*
X141477831Y-98106795D01*
X141482184Y-98104686D01*
X141498962Y-98097057D01*
X141551081Y-98073360D01*
X141554923Y-98070635D01*
X141554926Y-98070633D01*
X141567454Y-98061746D01*
X141579396Y-98054485D01*
X141597239Y-98045295D01*
X141656765Y-97998537D01*
X141660619Y-97995659D01*
X141718518Y-97954589D01*
X141718522Y-97954585D01*
X141722360Y-97951863D01*
X141736239Y-97937365D01*
X141746597Y-97927973D01*
X141758671Y-97918489D01*
X141758673Y-97918487D01*
X141762379Y-97915576D01*
X141765473Y-97912011D01*
X141811990Y-97858405D01*
X141815249Y-97854829D01*
X141864317Y-97803572D01*
X141867575Y-97800169D01*
X141878459Y-97783313D01*
X141886853Y-97772134D01*
X141896918Y-97760535D01*
X141896921Y-97760531D01*
X141900010Y-97756971D01*
X141937915Y-97691449D01*
X141940440Y-97687321D01*
X141978927Y-97627716D01*
X141978928Y-97627714D01*
X141981485Y-97623754D01*
X141988986Y-97605140D01*
X141995114Y-97592577D01*
X142005166Y-97575201D01*
X142029994Y-97503703D01*
X142031690Y-97499178D01*
X142058219Y-97433353D01*
X142059981Y-97428981D01*
X142063827Y-97409285D01*
X142067472Y-97395776D01*
X142072508Y-97381275D01*
X142074053Y-97376826D01*
X142084912Y-97301931D01*
X142085724Y-97297162D01*
X142099546Y-97226386D01*
X142099548Y-97226371D01*
X142100230Y-97222878D01*
X142100500Y-97217357D01*
X142100500Y-97201563D01*
X142101523Y-97187369D01*
X142104186Y-97169004D01*
X142100606Y-97091655D01*
X142100500Y-97087078D01*
X142100500Y-94522531D01*
X142085561Y-94365954D01*
X142054503Y-94260086D01*
X142050500Y-94232217D01*
X142050500Y-93705252D01*
X142038867Y-93646769D01*
X141994552Y-93580448D01*
X141928231Y-93536133D01*
X141918668Y-93534231D01*
X141918666Y-93534230D01*
X141895995Y-93529721D01*
X141869748Y-93524500D01*
X141346353Y-93524500D01*
X141313877Y-93519022D01*
X141266273Y-93502491D01*
X141266271Y-93502490D01*
X141261826Y-93500947D01*
X141257164Y-93500271D01*
X141058674Y-93471491D01*
X141058673Y-93471491D01*
X141054004Y-93470814D01*
X141049293Y-93471032D01*
X141049292Y-93471032D01*
X140848941Y-93480305D01*
X140848940Y-93480305D01*
X140844233Y-93480523D01*
X140673194Y-93521744D01*
X140649999Y-93524500D01*
X140130252Y-93524500D01*
X140104005Y-93529721D01*
X140081334Y-93534230D01*
X140081332Y-93534231D01*
X140071769Y-93536133D01*
X140005448Y-93580448D01*
X139961133Y-93646769D01*
X139949500Y-93705252D01*
X139949500Y-94218296D01*
X139942948Y-94252085D01*
X139943118Y-94252135D01*
X139942597Y-94253892D01*
X139942325Y-94255297D01*
X139940019Y-94261019D01*
X139939116Y-94265643D01*
X139900452Y-94463627D01*
X139900451Y-94463634D01*
X139899770Y-94467122D01*
X139899500Y-94472643D01*
X139899500Y-95915500D01*
X139880593Y-95973691D01*
X139831093Y-96009655D01*
X139800500Y-96014500D01*
X138836301Y-96014500D01*
X138825314Y-96013573D01*
X138825312Y-96013598D01*
X138820612Y-96013253D01*
X138815966Y-96012463D01*
X138723711Y-96014476D01*
X138721551Y-96014500D01*
X138682531Y-96014500D01*
X138674244Y-96015291D01*
X138667016Y-96015713D01*
X138610736Y-96016941D01*
X138610735Y-96016941D01*
X138606020Y-96017044D01*
X138572006Y-96024367D01*
X138560581Y-96026135D01*
X138530649Y-96028991D01*
X138530648Y-96028991D01*
X138525954Y-96029439D01*
X138467404Y-96046616D01*
X138460388Y-96048398D01*
X138400729Y-96061242D01*
X138396399Y-96063085D01*
X138396394Y-96063086D01*
X138368715Y-96074863D01*
X138357826Y-96078762D01*
X138324451Y-96088553D01*
X138320264Y-96090709D01*
X138320255Y-96090713D01*
X138270203Y-96116492D01*
X138263657Y-96119566D01*
X138207498Y-96143462D01*
X138203591Y-96146092D01*
X138203588Y-96146094D01*
X138178644Y-96162888D01*
X138168683Y-96168779D01*
X138141946Y-96182549D01*
X138141942Y-96182552D01*
X138137761Y-96184705D01*
X138102740Y-96212214D01*
X138089780Y-96222394D01*
X138083915Y-96226663D01*
X138036256Y-96258749D01*
X138036251Y-96258753D01*
X138033301Y-96260739D01*
X138029206Y-96264452D01*
X138007635Y-96286023D01*
X137998785Y-96293872D01*
X137972621Y-96314424D01*
X137931524Y-96361784D01*
X137926755Y-96366903D01*
X132123154Y-102170504D01*
X132068637Y-102198281D01*
X132053150Y-102199500D01*
X125443592Y-102199500D01*
X125392814Y-102185486D01*
X125377465Y-102176315D01*
X125377464Y-102176314D01*
X125372693Y-102173464D01*
X125367407Y-102171747D01*
X125367406Y-102171746D01*
X125318205Y-102155760D01*
X125318203Y-102155760D01*
X125314502Y-102154557D01*
X125310658Y-102153948D01*
X125310653Y-102153947D01*
X125254848Y-102145109D01*
X125254843Y-102145109D01*
X125251000Y-102144500D01*
X118749000Y-102144500D01*
X118716856Y-102147030D01*
X118686263Y-102151875D01*
X118680874Y-102154107D01*
X118680871Y-102154108D01*
X118603010Y-102186358D01*
X118603008Y-102186359D01*
X118597617Y-102188592D01*
X118548117Y-102224556D01*
X118520372Y-102248797D01*
X118473464Y-102327307D01*
X118471748Y-102332590D01*
X118471747Y-102332591D01*
X118455760Y-102381795D01*
X118454557Y-102385498D01*
X118444500Y-102449000D01*
X118444500Y-104050501D01*
X118447030Y-104082645D01*
X118451875Y-104113238D01*
X118454107Y-104118627D01*
X118454108Y-104118630D01*
X118461433Y-104136314D01*
X118466232Y-104197310D01*
X118458911Y-104217674D01*
X118414033Y-104309486D01*
X118409551Y-104323986D01*
X118408020Y-104334483D01*
X117200500Y-104334483D01*
X117200500Y-92034281D01*
X117203057Y-92011926D01*
X117203141Y-92011565D01*
X117205655Y-92000718D01*
X117205656Y-92000000D01*
X117204413Y-91994551D01*
X117203791Y-91988993D01*
X117204964Y-91988862D01*
X117203633Y-91968190D01*
X117214906Y-91853730D01*
X117218691Y-91834699D01*
X117258528Y-91703373D01*
X117265955Y-91685445D01*
X117330643Y-91564423D01*
X117341424Y-91548287D01*
X117360887Y-91524571D01*
X117428485Y-91442202D01*
X117442202Y-91428485D01*
X117548287Y-91341424D01*
X117564423Y-91330643D01*
X117685445Y-91265955D01*
X117703374Y-91258528D01*
X117834699Y-91218691D01*
X117853728Y-91214906D01*
X117968363Y-91203616D01*
X117978239Y-91203139D01*
X117988774Y-91203157D01*
X117999641Y-91205656D01*
X118011641Y-91202941D01*
X118033488Y-91200500D01*
X144965983Y-91200500D01*
X144988169Y-91203018D01*
G37*
%TD.AperFunction*%
%TD*%
%TA.AperFunction,Conductor*%
%TO.N,/VBUS*%
G36*
X125309191Y-102368907D02*
G01*
X125345155Y-102418407D01*
X125350000Y-102449000D01*
X125350000Y-104050500D01*
X125331093Y-104108691D01*
X125281593Y-104144655D01*
X125251000Y-104149500D01*
X125062336Y-104149500D01*
X124247868Y-104149501D01*
X124246198Y-104149833D01*
X124242802Y-104150000D01*
X119757210Y-104150000D01*
X119753805Y-104149833D01*
X119752133Y-104149500D01*
X119747274Y-104149500D01*
X118937624Y-104149501D01*
X118749000Y-104149501D01*
X118690809Y-104130594D01*
X118654845Y-104081094D01*
X118650000Y-104050501D01*
X118650000Y-102449000D01*
X118668907Y-102390809D01*
X118718407Y-102354845D01*
X118749000Y-102350000D01*
X125251000Y-102350000D01*
X125309191Y-102368907D01*
G37*
%TD.AperFunction*%
%TD*%
M02*
