  0
SECTION
  2
HEADER
  9
$ACADVER
  1
AC1009
  9
$MEASUREMENT
 70
     1
  0
ENDSEC
  0
SECTION
  2
ENTITIES
  0
LWPOLYLINE
  8
0
 62
7
 90
9
 70
1
 10
30.877000
 20
19.098438
 10
30.378562
 20
19.098438
 10
30.378562
 20
18.101563
 10
31.375438
 20
18.101563
 10
31.375438
 20
19.098438
 10
30.378562
 20
19.098438
 10
30.378562
 20
18.101563
 10
31.375438
 20
18.101563
 10
31.375438
 20
19.098438
  0
LWPOLYLINE
  8
0
 62
7
 90
9
 70
1
 10
29.123000
 20
19.098438
 10
28.624562
 20
19.098438
 10
28.624562
 20
18.101563
 10
29.621438
 20
18.101563
 10
29.621438
 20
19.098438
 10
28.624562
 20
19.098438
 10
28.624562
 20
18.101563
 10
29.621438
 20
18.101563
 10
29.621438
 20
19.098438
  0
LWPOLYLINE
  8
0
 62
7
 90
9
 70
1
 10
30.877000
 20
36.698438
 10
30.378562
 20
36.698438
 10
30.378562
 20
35.701563
 10
31.375438
 20
35.701563
 10
31.375438
 20
36.698438
 10
30.378562
 20
36.698438
 10
30.378562
 20
35.701563
 10
31.375438
 20
35.701563
 10
31.375438
 20
36.698438
  0
LWPOLYLINE
  8
0
 62
7
 90
9
 70
1
 10
29.123000
 20
36.698438
 10
28.624562
 20
36.698438
 10
28.624562
 20
35.701563
 10
29.621438
 20
35.701563
 10
29.621438
 20
36.698438
 10
28.624562
 20
36.698438
 10
28.624562
 20
35.701563
 10
29.621438
 20
35.701563
 10
29.621438
 20
36.698438
  0
LWPOLYLINE
  8
0
 62
7
 90
9
 70
1
 10
25.301562
 20
26.200000
 10
25.301562
 20
25.711562
 10
28.698438
 20
25.711562
 10
28.698438
 20
26.688437
 10
25.301562
 20
26.688437
 10
25.301562
 20
25.711562
 10
28.698438
 20
25.711562
 10
28.698438
 20
26.688437
 10
25.301562
 20
26.688437
  0
LWPOLYLINE
  8
0
 62
7
 90
9
 70
1
 10
25.301562
 20
28.600000
 10
25.301562
 20
28.111563
 10
28.698438
 20
28.111563
 10
28.698438
 20
29.088438
 10
25.301562
 20
29.088438
 10
25.301562
 20
28.111563
 10
28.698438
 20
28.111563
 10
28.698438
 20
29.088438
 10
25.301562
 20
29.088438
  0
LWPOLYLINE
  8
0
 62
7
 90
9
 70
1
 10
11.350000
 20
36.901562
 10
11.748437
 20
36.901562
 10
11.748437
 20
37.698437
 10
10.951562
 20
37.698437
 10
10.951562
 20
36.901562
 10
11.748437
 20
36.901562
 10
11.748437
 20
37.698437
 10
10.951562
 20
37.698437
 10
10.951562
 20
36.901562
  0
LWPOLYLINE
  8
0
 62
7
 90
9
 70
1
 10
12.850000
 20
36.901562
 10
13.248437
 20
36.901562
 10
13.248437
 20
37.698437
 10
12.451562
 20
37.698437
 10
12.451562
 20
36.901562
 10
13.248437
 20
36.901562
 10
13.248437
 20
37.698437
 10
12.451562
 20
37.698437
 10
12.451562
 20
36.901562
  0
LWPOLYLINE
  8
0
 62
7
 90
9
 70
1
 10
15.450000
 20
37.698437
 10
15.051562
 20
37.698437
 10
15.051562
 20
36.901562
 10
15.848437
 20
36.901562
 10
15.848437
 20
37.698437
 10
15.051562
 20
37.698437
 10
15.051562
 20
36.901562
 10
15.848437
 20
36.901562
 10
15.848437
 20
37.698437
  0
LWPOLYLINE
  8
0
 62
7
 90
9
 70
1
 10
13.950000
 20
37.698437
 10
13.551562
 20
37.698437
 10
13.551562
 20
36.901562
 10
14.348437
 20
36.901562
 10
14.348437
 20
37.698437
 10
13.551562
 20
37.698437
 10
13.551562
 20
36.901562
 10
14.348437
 20
36.901562
 10
14.348437
 20
37.698437
  0
LWPOLYLINE
  8
0
 62
7
 90
9
 70
1
 10
27.998438
 20
8.850000
 10
27.998438
 20
9.248437
 10
27.201563
 20
9.248437
 10
27.201563
 20
8.451562
 10
27.998438
 20
8.451562
 10
27.998438
 20
9.248437
 10
27.201563
 20
9.248437
 10
27.201563
 20
8.451562
 10
27.998438
 20
8.451562
  0
LWPOLYLINE
  8
0
 62
7
 90
9
 70
1
 10
27.998438
 20
10.350000
 10
27.998438
 20
10.748437
 10
27.201563
 20
10.748437
 10
27.201563
 20
9.951562
 10
27.998438
 20
9.951562
 10
27.998438
 20
10.748437
 10
27.201563
 20
10.748437
 10
27.201563
 20
9.951562
 10
27.998438
 20
9.951562
  0
LWPOLYLINE
  8
0
 62
7
 90
9
 70
1
 10
29.998438
 20
8.850000
 10
29.998438
 20
9.248437
 10
29.201563
 20
9.248437
 10
29.201563
 20
8.451562
 10
29.998438
 20
8.451562
 10
29.998438
 20
9.248437
 10
29.201563
 20
9.248437
 10
29.201563
 20
8.451562
 10
29.998438
 20
8.451562
  0
LWPOLYLINE
  8
0
 62
7
 90
9
 70
1
 10
29.998438
 20
10.350000
 10
29.998438
 20
10.748437
 10
29.201563
 20
10.748437
 10
29.201563
 20
9.951562
 10
29.998438
 20
9.951562
 10
29.998438
 20
10.748437
 10
29.201563
 20
10.748437
 10
29.201563
 20
9.951562
 10
29.998438
 20
9.951562
  0
LWPOLYLINE
  8
0
 62
7
 90
9
 70
1
 10
31.998438
 20
8.850000
 10
31.998438
 20
9.248437
 10
31.201563
 20
9.248437
 10
31.201563
 20
8.451562
 10
31.998438
 20
8.451562
 10
31.998438
 20
9.248437
 10
31.201563
 20
9.248437
 10
31.201563
 20
8.451562
 10
31.998438
 20
8.451562
  0
LWPOLYLINE
  8
0
 62
7
 90
9
 70
1
 10
31.998438
 20
10.350000
 10
31.998438
 20
10.748437
 10
31.201563
 20
10.748437
 10
31.201563
 20
9.951562
 10
31.998438
 20
9.951562
 10
31.998438
 20
10.748437
 10
31.201563
 20
10.748437
 10
31.201563
 20
9.951562
 10
31.998438
 20
9.951562
  0
LWPOLYLINE
  8
0
 62
7
 90
9
 70
1
 10
10.883000
 20
24.326562
 10
11.481437
 20
24.326562
 10
11.481437
 20
24.823438
 10
10.284562
 20
24.823438
 10
10.284562
 20
24.326562
 10
11.481437
 20
24.326562
 10
11.481437
 20
24.823438
 10
10.284562
 20
24.823438
 10
10.284562
 20
24.326562
  0
LWPOLYLINE
  8
0
 62
7
 90
9
 70
1
 10
10.883000
 20
23.526562
 10
11.481437
 20
23.526562
 10
11.481437
 20
24.023438
 10
10.284562
 20
24.023438
 10
10.284562
 20
23.526562
 10
11.481437
 20
23.526562
 10
11.481437
 20
24.023438
 10
10.284562
 20
24.023438
 10
10.284562
 20
23.526562
  0
LWPOLYLINE
  8
0
 62
7
 90
9
 70
1
 10
10.883000
 20
22.726563
 10
11.481437
 20
22.726563
 10
11.481437
 20
23.223438
 10
10.284562
 20
23.223438
 10
10.284562
 20
22.726563
 10
11.481437
 20
22.726563
 10
11.481437
 20
23.223438
 10
10.284562
 20
23.223438
 10
10.284562
 20
22.726563
  0
LWPOLYLINE
  8
0
 62
7
 90
9
 70
1
 10
10.883000
 20
21.926562
 10
11.481437
 20
21.926562
 10
11.481437
 20
22.423438
 10
10.284562
 20
22.423438
 10
10.284562
 20
21.926562
 10
11.481437
 20
21.926562
 10
11.481437
 20
22.423438
 10
10.284562
 20
22.423438
 10
10.284562
 20
21.926562
  0
LWPOLYLINE
  8
0
 62
7
 90
9
 70
1
 10
10.883000
 20
21.126562
 10
11.481437
 20
21.126562
 10
11.481437
 20
21.623438
 10
10.284562
 20
21.623438
 10
10.284562
 20
21.126562
 10
11.481437
 20
21.126562
 10
11.481437
 20
21.623438
 10
10.284562
 20
21.623438
 10
10.284562
 20
21.126562
  0
LWPOLYLINE
  8
0
 62
7
 90
9
 70
1
 10
10.883000
 20
20.326562
 10
11.481437
 20
20.326562
 10
11.481437
 20
20.823438
 10
10.284562
 20
20.823438
 10
10.284562
 20
20.326562
 10
11.481437
 20
20.326562
 10
11.481437
 20
20.823438
 10
10.284562
 20
20.823438
 10
10.284562
 20
20.326562
  0
LWPOLYLINE
  8
0
 62
7
 90
9
 70
1
 10
10.883000
 20
19.526562
 10
11.481437
 20
19.526562
 10
11.481437
 20
20.023438
 10
10.284562
 20
20.023438
 10
10.284562
 20
19.526562
 10
11.481437
 20
19.526562
 10
11.481437
 20
20.023438
 10
10.284562
 20
20.023438
 10
10.284562
 20
19.526562
  0
LWPOLYLINE
  8
0
 62
7
 90
9
 70
1
 10
10.883000
 20
19.223438
 10
10.284562
 20
19.223438
 10
10.284562
 20
18.726563
 10
11.481437
 20
18.726563
 10
11.481437
 20
19.223438
 10
10.284562
 20
19.223438
 10
10.284562
 20
18.726563
 10
11.481437
 20
18.726563
 10
11.481437
 20
19.223438
  0
LWPOLYLINE
  8
0
 62
7
 90
9
 70
1
 10
12.333000
 20
16.926562
 10
12.581437
 20
16.926562
 10
12.581437
 20
18.123437
 10
12.084563
 20
18.123437
 10
12.084563
 20
16.926562
 10
12.581437
 20
16.926562
 10
12.581437
 20
18.123437
 10
12.084563
 20
18.123437
 10
12.084563
 20
16.926562
  0
LWPOLYLINE
  8
0
 62
7
 90
9
 70
1
 10
13.133000
 20
16.926562
 10
13.381437
 20
16.926562
 10
13.381437
 20
18.123437
 10
12.884562
 20
18.123437
 10
12.884562
 20
16.926562
 10
13.381437
 20
16.926562
 10
13.381437
 20
18.123437
 10
12.884562
 20
18.123437
 10
12.884562
 20
16.926562
  0
LWPOLYLINE
  8
0
 62
7
 90
9
 70
1
 10
13.933000
 20
16.926562
 10
14.181437
 20
16.926562
 10
14.181437
 20
18.123437
 10
13.684563
 20
18.123437
 10
13.684563
 20
16.926562
 10
14.181437
 20
16.926562
 10
14.181437
 20
18.123437
 10
13.684563
 20
18.123437
 10
13.684563
 20
16.926562
  0
LWPOLYLINE
  8
0
 62
7
 90
9
 70
1
 10
14.733000
 20
16.926562
 10
14.981438
 20
16.926562
 10
14.981438
 20
18.123437
 10
14.484563
 20
18.123437
 10
14.484563
 20
16.926562
 10
14.981438
 20
16.926562
 10
14.981438
 20
18.123437
 10
14.484563
 20
18.123437
 10
14.484563
 20
16.926562
  0
LWPOLYLINE
  8
0
 62
7
 90
9
 70
1
 10
15.533000
 20
16.926562
 10
15.781437
 20
16.926562
 10
15.781437
 20
18.123437
 10
15.284562
 20
18.123437
 10
15.284562
 20
16.926562
 10
15.781437
 20
16.926562
 10
15.781437
 20
18.123437
 10
15.284562
 20
18.123437
 10
15.284562
 20
16.926562
  0
LWPOLYLINE
  8
0
 62
7
 90
9
 70
1
 10
16.333000
 20
16.926562
 10
16.581437
 20
16.926562
 10
16.581437
 20
18.123437
 10
16.084562
 20
18.123437
 10
16.084562
 20
16.926562
 10
16.581437
 20
16.926562
 10
16.581437
 20
18.123437
 10
16.084562
 20
18.123437
 10
16.084562
 20
16.926562
  0
LWPOLYLINE
  8
0
 62
7
 90
9
 70
1
 10
17.133000
 20
16.926562
 10
17.381438
 20
16.926562
 10
17.381438
 20
18.123437
 10
16.884562
 20
18.123437
 10
16.884562
 20
16.926562
 10
17.381438
 20
16.926562
 10
17.381438
 20
18.123437
 10
16.884562
 20
18.123437
 10
16.884562
 20
16.926562
  0
LWPOLYLINE
  8
0
 62
7
 90
9
 70
1
 10
17.933000
 20
16.926562
 10
18.181438
 20
16.926562
 10
18.181438
 20
18.123437
 10
17.684562
 20
18.123437
 10
17.684562
 20
16.926562
 10
18.181438
 20
16.926562
 10
18.181438
 20
18.123437
 10
17.684562
 20
18.123437
 10
17.684562
 20
16.926562
  0
LWPOLYLINE
  8
0
 62
7
 90
9
 70
1
 10
19.383000
 20
18.726563
 10
19.981437
 20
18.726563
 10
19.981437
 20
19.223438
 10
18.784562
 20
19.223438
 10
18.784562
 20
18.726563
 10
19.981437
 20
18.726563
 10
19.981437
 20
19.223438
 10
18.784562
 20
19.223438
 10
18.784562
 20
18.726563
  0
LWPOLYLINE
  8
0
 62
7
 90
9
 70
1
 10
19.383000
 20
19.526562
 10
19.981437
 20
19.526562
 10
19.981437
 20
20.023438
 10
18.784562
 20
20.023438
 10
18.784562
 20
19.526562
 10
19.981437
 20
19.526562
 10
19.981437
 20
20.023438
 10
18.784562
 20
20.023438
 10
18.784562
 20
19.526562
  0
LWPOLYLINE
  8
0
 62
7
 90
9
 70
1
 10
19.383000
 20
20.326562
 10
19.981437
 20
20.326562
 10
19.981437
 20
20.823438
 10
18.784562
 20
20.823438
 10
18.784562
 20
20.326562
 10
19.981437
 20
20.326562
 10
19.981437
 20
20.823438
 10
18.784562
 20
20.823438
 10
18.784562
 20
20.326562
  0
LWPOLYLINE
  8
0
 62
7
 90
9
 70
1
 10
19.383000
 20
21.126562
 10
19.981437
 20
21.126562
 10
19.981437
 20
21.623438
 10
18.784562
 20
21.623438
 10
18.784562
 20
21.126562
 10
19.981437
 20
21.126562
 10
19.981437
 20
21.623438
 10
18.784562
 20
21.623438
 10
18.784562
 20
21.126562
  0
LWPOLYLINE
  8
0
 62
7
 90
9
 70
1
 10
19.383000
 20
21.926562
 10
19.981437
 20
21.926562
 10
19.981437
 20
22.423438
 10
18.784562
 20
22.423438
 10
18.784562
 20
21.926562
 10
19.981437
 20
21.926562
 10
19.981437
 20
22.423438
 10
18.784562
 20
22.423438
 10
18.784562
 20
21.926562
  0
LWPOLYLINE
  8
0
 62
7
 90
9
 70
1
 10
19.383000
 20
22.726563
 10
19.981437
 20
22.726563
 10
19.981437
 20
23.223438
 10
18.784562
 20
23.223438
 10
18.784562
 20
22.726563
 10
19.981437
 20
22.726563
 10
19.981437
 20
23.223438
 10
18.784562
 20
23.223438
 10
18.784562
 20
22.726563
  0
LWPOLYLINE
  8
0
 62
7
 90
9
 70
1
 10
19.383000
 20
23.526562
 10
19.981437
 20
23.526562
 10
19.981437
 20
24.023438
 10
18.784562
 20
24.023438
 10
18.784562
 20
23.526562
 10
19.981437
 20
23.526562
 10
19.981437
 20
24.023438
 10
18.784562
 20
24.023438
 10
18.784562
 20
23.526562
  0
LWPOLYLINE
  8
0
 62
7
 90
9
 70
1
 10
19.383000
 20
24.326562
 10
19.981437
 20
24.326562
 10
19.981437
 20
24.823438
 10
18.784562
 20
24.823438
 10
18.784562
 20
24.326562
 10
19.981437
 20
24.326562
 10
19.981437
 20
24.823438
 10
18.784562
 20
24.823438
 10
18.784562
 20
24.326562
  0
LWPOLYLINE
  8
0
 62
7
 90
9
 70
1
 10
17.933000
 20
25.426562
 10
18.181438
 20
25.426562
 10
18.181438
 20
26.623437
 10
17.684562
 20
26.623437
 10
17.684562
 20
25.426562
 10
18.181438
 20
25.426562
 10
18.181438
 20
26.623437
 10
17.684562
 20
26.623437
 10
17.684562
 20
25.426562
  0
LWPOLYLINE
  8
0
 62
7
 90
9
 70
1
 10
17.133000
 20
25.426562
 10
17.381438
 20
25.426562
 10
17.381438
 20
26.623437
 10
16.884562
 20
26.623437
 10
16.884562
 20
25.426562
 10
17.381438
 20
25.426562
 10
17.381438
 20
26.623437
 10
16.884562
 20
26.623437
 10
16.884562
 20
25.426562
  0
LWPOLYLINE
  8
0
 62
7
 90
9
 70
1
 10
16.333000
 20
25.426562
 10
16.581437
 20
25.426562
 10
16.581437
 20
26.623437
 10
16.084562
 20
26.623437
 10
16.084562
 20
25.426562
 10
16.581437
 20
25.426562
 10
16.581437
 20
26.623437
 10
16.084562
 20
26.623437
 10
16.084562
 20
25.426562
  0
LWPOLYLINE
  8
0
 62
7
 90
9
 70
1
 10
15.533000
 20
25.426562
 10
15.781437
 20
25.426562
 10
15.781437
 20
26.623437
 10
15.284562
 20
26.623437
 10
15.284562
 20
25.426562
 10
15.781437
 20
25.426562
 10
15.781437
 20
26.623437
 10
15.284562
 20
26.623437
 10
15.284562
 20
25.426562
  0
LWPOLYLINE
  8
0
 62
7
 90
9
 70
1
 10
14.733000
 20
25.426562
 10
14.981438
 20
25.426562
 10
14.981438
 20
26.623437
 10
14.484563
 20
26.623437
 10
14.484563
 20
25.426562
 10
14.981438
 20
25.426562
 10
14.981438
 20
26.623437
 10
14.484563
 20
26.623437
 10
14.484563
 20
25.426562
  0
LWPOLYLINE
  8
0
 62
7
 90
9
 70
1
 10
13.933000
 20
25.426562
 10
14.181437
 20
25.426562
 10
14.181437
 20
26.623437
 10
13.684563
 20
26.623437
 10
13.684563
 20
25.426562
 10
14.181437
 20
25.426562
 10
14.181437
 20
26.623437
 10
13.684563
 20
26.623437
 10
13.684563
 20
25.426562
  0
LWPOLYLINE
  8
0
 62
7
 90
9
 70
1
 10
13.133000
 20
25.426562
 10
13.381437
 20
25.426562
 10
13.381437
 20
26.623437
 10
12.884562
 20
26.623437
 10
12.884562
 20
25.426562
 10
13.381437
 20
25.426562
 10
13.381437
 20
26.623437
 10
12.884562
 20
26.623437
 10
12.884562
 20
25.426562
  0
LWPOLYLINE
  8
0
 62
7
 90
9
 70
1
 10
12.333000
 20
25.426562
 10
12.581437
 20
25.426562
 10
12.581437
 20
26.623437
 10
12.084563
 20
26.623437
 10
12.084563
 20
25.426562
 10
12.581437
 20
25.426562
 10
12.581437
 20
26.623437
 10
12.084563
 20
26.623437
 10
12.084563
 20
25.426562
  0
LWPOLYLINE
  8
0
 62
7
 90
9
 70
1
 10
23.148438
 20
23.475000
 10
23.148438
 20
23.698438
 10
22.051563
 20
23.698438
 10
22.051563
 20
23.251563
 10
23.148438
 20
23.251563
 10
23.148438
 20
23.698438
 10
22.051563
 20
23.698438
 10
22.051563
 20
23.251563
 10
23.148438
 20
23.251563
  0
LWPOLYLINE
  8
0
 62
7
 90
9
 70
1
 10
23.148438
 20
22.825000
 10
23.148438
 20
23.048437
 10
22.051563
 20
23.048437
 10
22.051563
 20
22.601563
 10
23.148438
 20
22.601563
 10
23.148438
 20
23.048437
 10
22.051563
 20
23.048437
 10
22.051563
 20
22.601563
 10
23.148438
 20
22.601563
  0
LWPOLYLINE
  8
0
 62
7
 90
9
 70
1
 10
23.148438
 20
22.175000
 10
23.148438
 20
22.398438
 10
22.051563
 20
22.398438
 10
22.051563
 20
21.951563
 10
23.148438
 20
21.951563
 10
23.148438
 20
22.398438
 10
22.051563
 20
22.398438
 10
22.051563
 20
21.951563
 10
23.148438
 20
21.951563
  0
LWPOLYLINE
  8
0
 62
7
 90
9
 70
1
 10
23.148438
 20
21.525000
 10
23.148438
 20
21.748437
 10
22.051563
 20
21.748437
 10
22.051563
 20
21.301562
 10
23.148438
 20
21.301562
 10
23.148438
 20
21.748437
 10
22.051563
 20
21.748437
 10
22.051563
 20
21.301562
 10
23.148438
 20
21.301562
  0
LWPOLYLINE
  8
0
 62
7
 90
9
 70
1
 10
25.748437
 20
21.525000
 10
25.748437
 20
21.748437
 10
24.651563
 20
21.748437
 10
24.651563
 20
21.301562
 10
25.748437
 20
21.301562
 10
25.748437
 20
21.748437
 10
24.651563
 20
21.748437
 10
24.651563
 20
21.301562
 10
25.748437
 20
21.301562
  0
LWPOLYLINE
  8
0
 62
7
 90
9
 70
1
 10
25.748437
 20
22.175000
 10
25.748437
 20
22.398438
 10
24.651563
 20
22.398438
 10
24.651563
 20
21.951563
 10
25.748437
 20
21.951563
 10
25.748437
 20
22.398438
 10
24.651563
 20
22.398438
 10
24.651563
 20
21.951563
 10
25.748437
 20
21.951563
  0
LWPOLYLINE
  8
0
 62
7
 90
9
 70
1
 10
25.748437
 20
22.825000
 10
25.748437
 20
23.048437
 10
24.651563
 20
23.048437
 10
24.651563
 20
22.601563
 10
25.748437
 20
22.601563
 10
25.748437
 20
23.048437
 10
24.651563
 20
23.048437
 10
24.651563
 20
22.601563
 10
25.748437
 20
22.601563
  0
LWPOLYLINE
  8
0
 62
7
 90
9
 70
1
 10
25.748437
 20
23.475000
 10
25.748437
 20
23.698438
 10
24.651563
 20
23.698438
 10
24.651563
 20
23.251563
 10
25.748437
 20
23.251563
 10
25.748437
 20
23.698438
 10
24.651563
 20
23.698438
 10
24.651563
 20
23.251563
 10
25.748437
 20
23.251563
  0
LWPOLYLINE
  8
0
 62
7
 90
9
 70
1
 10
22.010000
 20
11.598437
 10
21.696563
 20
11.598437
 10
21.696563
 20
11.301562
 10
22.323438
 20
11.301562
 10
22.323438
 20
11.598437
 10
21.696563
 20
11.598437
 10
21.696563
 20
11.301562
 10
22.323438
 20
11.301562
 10
22.323438
 20
11.598437
  0
LWPOLYLINE
  8
0
 62
7
 90
9
 70
1
 10
22.010000
 20
11.098437
 10
21.696563
 20
11.098437
 10
21.696563
 20
10.801562
 10
22.323438
 20
10.801562
 10
22.323438
 20
11.098437
 10
21.696563
 20
11.098437
 10
21.696563
 20
10.801562
 10
22.323438
 20
10.801562
 10
22.323438
 20
11.098437
  0
LWPOLYLINE
  8
0
 62
7
 90
9
 70
1
 10
22.010000
 20
10.598437
 10
21.696563
 20
10.598437
 10
21.696563
 20
10.301562
 10
22.323438
 20
10.301562
 10
22.323438
 20
10.598437
 10
21.696563
 20
10.598437
 10
21.696563
 20
10.301562
 10
22.323438
 20
10.301562
 10
22.323438
 20
10.598437
  0
LWPOLYLINE
  8
0
 62
7
 90
9
 70
1
 10
22.010000
 20
10.098437
 10
21.696563
 20
10.098437
 10
21.696563
 20
9.801562
 10
22.323438
 20
9.801562
 10
22.323438
 20
10.098437
 10
21.696563
 20
10.098437
 10
21.696563
 20
9.801562
 10
22.323438
 20
9.801562
 10
22.323438
 20
10.098437
  0
LWPOLYLINE
  8
0
 62
7
 90
9
 70
1
 10
22.798437
 20
9.310000
 10
22.798437
 20
9.623437
 10
22.501562
 20
9.623437
 10
22.501562
 20
8.996563
 10
22.798437
 20
8.996563
 10
22.798437
 20
9.623437
 10
22.501562
 20
9.623437
 10
22.501562
 20
8.996563
 10
22.798437
 20
8.996563
  0
LWPOLYLINE
  8
0
 62
7
 90
9
 70
1
 10
23.298437
 20
9.310000
 10
23.298437
 20
9.623437
 10
23.001562
 20
9.623437
 10
23.001562
 20
8.996563
 10
23.298437
 20
8.996563
 10
23.298437
 20
9.623437
 10
23.001562
 20
9.623437
 10
23.001562
 20
8.996563
 10
23.298437
 20
8.996563
  0
LWPOLYLINE
  8
0
 62
7
 90
9
 70
1
 10
23.798437
 20
9.310000
 10
23.798437
 20
9.623437
 10
23.501562
 20
9.623437
 10
23.501562
 20
8.996563
 10
23.798437
 20
8.996563
 10
23.798437
 20
9.623437
 10
23.501562
 20
9.623437
 10
23.501562
 20
8.996563
 10
23.798437
 20
8.996563
  0
LWPOLYLINE
  8
0
 62
7
 90
9
 70
1
 10
24.298437
 20
9.310000
 10
24.298437
 20
9.623437
 10
24.001562
 20
9.623437
 10
24.001562
 20
8.996563
 10
24.298437
 20
8.996563
 10
24.298437
 20
9.623437
 10
24.001562
 20
9.623437
 10
24.001562
 20
8.996563
 10
24.298437
 20
8.996563
  0
LWPOLYLINE
  8
0
 62
7
 90
9
 70
1
 10
24.790000
 20
9.801562
 10
25.103437
 20
9.801562
 10
25.103437
 20
10.098437
 10
24.476563
 20
10.098437
 10
24.476563
 20
9.801562
 10
25.103437
 20
9.801562
 10
25.103437
 20
10.098437
 10
24.476563
 20
10.098437
 10
24.476563
 20
9.801562
  0
LWPOLYLINE
  8
0
 62
7
 90
9
 70
1
 10
24.790000
 20
10.301562
 10
25.103437
 20
10.301562
 10
25.103437
 20
10.598437
 10
24.476563
 20
10.598437
 10
24.476563
 20
10.301562
 10
25.103437
 20
10.301562
 10
25.103437
 20
10.598437
 10
24.476563
 20
10.598437
 10
24.476563
 20
10.301562
  0
LWPOLYLINE
  8
0
 62
7
 90
9
 70
1
 10
24.790000
 20
10.801562
 10
25.103437
 20
10.801562
 10
25.103437
 20
11.098437
 10
24.476563
 20
11.098437
 10
24.476563
 20
10.801562
 10
25.103437
 20
10.801562
 10
25.103437
 20
11.098437
 10
24.476563
 20
11.098437
 10
24.476563
 20
10.801562
  0
LWPOLYLINE
  8
0
 62
7
 90
9
 70
1
 10
24.790000
 20
11.301562
 10
25.103437
 20
11.301562
 10
25.103437
 20
11.598437
 10
24.476563
 20
11.598437
 10
24.476563
 20
11.301562
 10
25.103437
 20
11.301562
 10
25.103437
 20
11.598437
 10
24.476563
 20
11.598437
 10
24.476563
 20
11.301562
  0
LWPOLYLINE
  8
0
 62
7
 90
9
 70
1
 10
24.001562
 20
12.090000
 10
24.001562
 20
11.776563
 10
24.298437
 20
11.776563
 10
24.298437
 20
12.403437
 10
24.001562
 20
12.403437
 10
24.001562
 20
11.776563
 10
24.298437
 20
11.776563
 10
24.298437
 20
12.403437
 10
24.001562
 20
12.403437
  0
LWPOLYLINE
  8
0
 62
7
 90
9
 70
1
 10
23.501562
 20
12.090000
 10
23.501562
 20
11.776563
 10
23.798437
 20
11.776563
 10
23.798437
 20
12.403437
 10
23.501562
 20
12.403437
 10
23.501562
 20
11.776563
 10
23.798437
 20
11.776563
 10
23.798437
 20
12.403437
 10
23.501562
 20
12.403437
  0
LWPOLYLINE
  8
0
 62
7
 90
9
 70
1
 10
23.001562
 20
12.090000
 10
23.001562
 20
11.776563
 10
23.298437
 20
11.776563
 10
23.298437
 20
12.403437
 10
23.001562
 20
12.403437
 10
23.001562
 20
11.776563
 10
23.298437
 20
11.776563
 10
23.298437
 20
12.403437
 10
23.001562
 20
12.403437
  0
LWPOLYLINE
  8
0
 62
7
 90
9
 70
1
 10
22.501562
 20
12.090000
 10
22.501562
 20
11.776563
 10
22.798437
 20
11.776563
 10
22.798437
 20
12.403437
 10
22.501562
 20
12.403437
 10
22.501562
 20
11.776563
 10
22.798437
 20
11.776563
 10
22.798437
 20
12.403437
 10
22.501562
 20
12.403437
  0
LWPOLYLINE
  8
0
 62
7
 90
9
 70
1
  0
LWPOLYLINE
  8
0
 62
7
 90
9
 70
1
 10
23.198437
 20
11.200000
 10
23.198437
 20
11.498437
 10
22.601563
 20
11.498437
 10
22.601563
 20
10.901562
 10
23.198437
 20
10.901562
 10
23.198437
 20
11.498437
 10
22.601563
 20
11.498437
 10
22.601563
 20
10.901562
 10
23.198437
 20
10.901562
  0
LWPOLYLINE
  8
0
 62
7
 90
9
 70
1
  0
LWPOLYLINE
  8
0
 62
7
 90
9
 70
1
 10
24.198437
 20
11.200000
 10
24.198437
 20
11.498437
 10
23.601563
 20
11.498437
 10
23.601563
 20
10.901562
 10
24.198437
 20
10.901562
 10
24.198437
 20
11.498437
 10
23.601563
 20
11.498437
 10
23.601563
 20
10.901562
 10
24.198437
 20
10.901562
  0
LWPOLYLINE
  8
0
 62
7
 90
9
 70
1
  0
LWPOLYLINE
  8
0
 62
7
 90
9
 70
1
 10
24.198437
 20
10.200000
 10
24.198437
 20
10.498437
 10
23.601563
 20
10.498437
 10
23.601563
 20
9.901562
 10
24.198437
 20
9.901562
 10
24.198437
 20
10.498437
 10
23.601563
 20
10.498437
 10
23.601563
 20
9.901562
 10
24.198437
 20
9.901562
  0
LWPOLYLINE
  8
0
 62
7
 90
9
 70
1
  0
LWPOLYLINE
  8
0
 62
7
 90
9
 70
1
 10
23.198437
 20
10.200000
 10
23.198437
 20
10.498437
 10
22.601563
 20
10.498437
 10
22.601563
 20
9.901562
 10
23.198437
 20
9.901562
 10
23.198437
 20
10.498437
 10
22.601563
 20
10.498437
 10
22.601563
 20
9.901562
 10
23.198437
 20
9.901562
  0
LWPOLYLINE
  8
0
 62
7
 90
9
 70
1
 10
15.398438
 20
8.250000
 10
15.398438
 20
8.448438
 10
14.801562
 20
8.448438
 10
14.801562
 20
8.051562
 10
15.398438
 20
8.051562
 10
15.398438
 20
8.448438
 10
14.801562
 20
8.448438
 10
14.801562
 20
8.051562
 10
15.398438
 20
8.051562
  0
LWPOLYLINE
  8
0
 62
7
 90
9
 70
1
 10
13.198438
 20
8.250000
 10
13.198438
 20
8.448438
 10
12.601563
 20
8.448438
 10
12.601563
 20
8.051562
 10
13.198438
 20
8.051562
 10
13.198438
 20
8.448438
 10
12.601563
 20
8.448438
 10
12.601563
 20
8.051562
 10
13.198438
 20
8.051562
  0
LWPOLYLINE
  8
0
 62
7
 90
9
 70
1
 10
15.398438
 20
10.150000
 10
15.398438
 20
10.348438
 10
14.801562
 20
10.348438
 10
14.801562
 20
9.951562
 10
15.398438
 20
9.951562
 10
15.398438
 20
10.348438
 10
14.801562
 20
10.348438
 10
14.801562
 20
9.951562
 10
15.398438
 20
9.951562
  0
LWPOLYLINE
  8
0
 62
7
 90
9
 70
1
 10
13.198438
 20
10.150000
 10
13.198438
 20
10.348438
 10
12.601563
 20
10.348438
 10
12.601563
 20
9.951562
 10
13.198438
 20
9.951562
 10
13.198438
 20
10.348438
 10
12.601563
 20
10.348438
 10
12.601563
 20
9.951562
 10
13.198438
 20
9.951562
  0
LWPOLYLINE
  8
0
 62
7
 90
9
 70
1
 10
15.398438
 20
9.200000
 10
15.398438
 20
9.398438
 10
14.801562
 20
9.398438
 10
14.801562
 20
9.001562
 10
15.398438
 20
9.001562
 10
15.398438
 20
9.398438
 10
14.801562
 20
9.398438
 10
14.801562
 20
9.001562
 10
15.398438
 20
9.001562
  0
LWPOLYLINE
  8
0
 62
7
 90
9
 70
1
 10
6.350000
 20
11.226563
 10
6.523438
 20
11.226563
 10
6.523438
 20
12.123438
 10
6.176562
 20
12.123438
 10
6.176562
 20
11.226563
 10
6.523438
 20
11.226563
 10
6.523438
 20
12.123438
 10
6.176562
 20
12.123438
 10
6.176562
 20
11.226563
  0
LWPOLYLINE
  8
0
 62
7
 90
9
 70
1
 10
5.700000
 20
11.226563
 10
5.873438
 20
11.226563
 10
5.873438
 20
12.123438
 10
5.526562
 20
12.123438
 10
5.526562
 20
11.226563
 10
5.873438
 20
11.226563
 10
5.873438
 20
12.123438
 10
5.526562
 20
12.123438
 10
5.526562
 20
11.226563
  0
LWPOLYLINE
  8
0
 62
7
 90
9
 70
1
 10
5.050000
 20
11.226563
 10
5.223438
 20
11.226563
 10
5.223438
 20
12.123438
 10
4.876562
 20
12.123438
 10
4.876562
 20
11.226563
 10
5.223438
 20
11.226563
 10
5.223438
 20
12.123438
 10
4.876562
 20
12.123438
 10
4.876562
 20
11.226563
  0
LWPOLYLINE
  8
0
 62
7
 90
9
 70
1
 10
4.400000
 20
11.226563
 10
4.573438
 20
11.226563
 10
4.573438
 20
12.123438
 10
4.226563
 20
12.123438
 10
4.226563
 20
11.226563
 10
4.573438
 20
11.226563
 10
4.573438
 20
12.123438
 10
4.226563
 20
12.123438
 10
4.226563
 20
11.226563
  0
LWPOLYLINE
  8
0
 62
7
 90
9
 70
1
 10
3.750000
 20
11.226563
 10
3.923437
 20
11.226563
 10
3.923437
 20
12.123438
 10
3.576563
 20
12.123438
 10
3.576563
 20
11.226563
 10
3.923437
 20
11.226563
 10
3.923437
 20
12.123438
 10
3.576563
 20
12.123438
 10
3.576563
 20
11.226563
  0
LWPOLYLINE
  8
0
 62
7
 90
9
 70
1
 10
3.100000
 20
11.226563
 10
3.273438
 20
11.226563
 10
3.273438
 20
12.123438
 10
2.926563
 20
12.123438
 10
2.926563
 20
11.226563
 10
3.273438
 20
11.226563
 10
3.273438
 20
12.123438
 10
2.926563
 20
12.123438
 10
2.926563
 20
11.226563
  0
LWPOLYLINE
  8
0
 62
7
 90
9
 70
1
 10
2.450000
 20
11.226563
 10
2.623438
 20
11.226563
 10
2.623438
 20
12.123438
 10
2.276563
 20
12.123438
 10
2.276563
 20
11.226563
 10
2.623438
 20
11.226563
 10
2.623438
 20
12.123438
 10
2.276563
 20
12.123438
 10
2.276563
 20
11.226563
  0
LWPOLYLINE
  8
0
 62
7
 90
9
 70
1
 10
2.450000
 20
5.476563
 10
2.623438
 20
5.476563
 10
2.623438
 20
6.373437
 10
2.276563
 20
6.373437
 10
2.276563
 20
5.476563
 10
2.623438
 20
5.476563
 10
2.623438
 20
6.373437
 10
2.276563
 20
6.373437
 10
2.276563
 20
5.476563
  0
LWPOLYLINE
  8
0
 62
7
 90
9
 70
1
 10
3.100000
 20
5.476563
 10
3.273438
 20
5.476563
 10
3.273438
 20
6.373437
 10
2.926563
 20
6.373437
 10
2.926563
 20
5.476563
 10
3.273438
 20
5.476563
 10
3.273438
 20
6.373437
 10
2.926563
 20
6.373437
 10
2.926563
 20
5.476563
  0
LWPOLYLINE
  8
0
 62
7
 90
9
 70
1
 10
3.750000
 20
5.476563
 10
3.923437
 20
5.476563
 10
3.923437
 20
6.373437
 10
3.576563
 20
6.373437
 10
3.576563
 20
5.476563
 10
3.923437
 20
5.476563
 10
3.923437
 20
6.373437
 10
3.576563
 20
6.373437
 10
3.576563
 20
5.476563
  0
LWPOLYLINE
  8
0
 62
7
 90
9
 70
1
 10
4.400000
 20
5.476563
 10
4.573438
 20
5.476563
 10
4.573438
 20
6.373437
 10
4.226563
 20
6.373437
 10
4.226563
 20
5.476563
 10
4.573438
 20
5.476563
 10
4.573438
 20
6.373437
 10
4.226563
 20
6.373437
 10
4.226563
 20
5.476563
  0
LWPOLYLINE
  8
0
 62
7
 90
9
 70
1
 10
5.050000
 20
5.476563
 10
5.223438
 20
5.476563
 10
5.223438
 20
6.373437
 10
4.876562
 20
6.373437
 10
4.876562
 20
5.476563
 10
5.223438
 20
5.476563
 10
5.223438
 20
6.373437
 10
4.876562
 20
6.373437
 10
4.876562
 20
5.476563
  0
LWPOLYLINE
  8
0
 62
7
 90
9
 70
1
 10
5.700000
 20
5.476563
 10
5.873438
 20
5.476563
 10
5.873438
 20
6.373437
 10
5.526562
 20
6.373437
 10
5.526562
 20
5.476563
 10
5.873438
 20
5.476563
 10
5.873438
 20
6.373437
 10
5.526562
 20
6.373437
 10
5.526562
 20
5.476563
  0
LWPOLYLINE
  8
0
 62
7
 90
9
 70
1
 10
6.350000
 20
5.476563
 10
6.523438
 20
5.476563
 10
6.523438
 20
6.373437
 10
6.176562
 20
6.373437
 10
6.176562
 20
5.476563
 10
6.523438
 20
5.476563
 10
6.523438
 20
6.373437
 10
6.176562
 20
6.373437
 10
6.176562
 20
5.476563
  0
LWPOLYLINE
  8
0
 62
7
 90
9
 70
1
 10
19.790000
 20
32.901562
 10
20.103437
 20
32.901562
 10
20.103437
 20
33.198437
 10
19.476563
 20
33.198437
 10
19.476563
 20
32.901562
 10
20.103437
 20
32.901562
 10
20.103437
 20
33.198437
 10
19.476563
 20
33.198437
 10
19.476563
 20
32.901562
  0
LWPOLYLINE
  8
0
 62
7
 90
9
 70
1
 10
19.790000
 20
33.401562
 10
20.103437
 20
33.401562
 10
20.103437
 20
33.698437
 10
19.476563
 20
33.698437
 10
19.476563
 20
33.401562
 10
20.103437
 20
33.401562
 10
20.103437
 20
33.698437
 10
19.476563
 20
33.698437
 10
19.476563
 20
33.401562
  0
LWPOLYLINE
  8
0
 62
7
 90
9
 70
1
 10
19.790000
 20
33.901562
 10
20.103437
 20
33.901562
 10
20.103437
 20
34.198437
 10
19.476563
 20
34.198437
 10
19.476563
 20
33.901562
 10
20.103437
 20
33.901562
 10
20.103437
 20
34.198437
 10
19.476563
 20
34.198437
 10
19.476563
 20
33.901562
  0
LWPOLYLINE
  8
0
 62
7
 90
9
 70
1
 10
19.790000
 20
34.401562
 10
20.103437
 20
34.401562
 10
20.103437
 20
34.698437
 10
19.476563
 20
34.698437
 10
19.476563
 20
34.401562
 10
20.103437
 20
34.401562
 10
20.103437
 20
34.698437
 10
19.476563
 20
34.698437
 10
19.476563
 20
34.401562
  0
LWPOLYLINE
  8
0
 62
7
 90
9
 70
1
 10
19.001562
 20
35.190000
 10
19.001562
 20
34.876562
 10
19.298437
 20
34.876562
 10
19.298437
 20
35.503437
 10
19.001562
 20
35.503437
 10
19.001562
 20
34.876562
 10
19.298437
 20
34.876562
 10
19.298437
 20
35.503437
 10
19.001562
 20
35.503437
  0
LWPOLYLINE
  8
0
 62
7
 90
9
 70
1
 10
18.501562
 20
35.190000
 10
18.501562
 20
34.876562
 10
18.798437
 20
34.876562
 10
18.798437
 20
35.503437
 10
18.501562
 20
35.503437
 10
18.501562
 20
34.876562
 10
18.798437
 20
34.876562
 10
18.798437
 20
35.503437
 10
18.501562
 20
35.503437
  0
LWPOLYLINE
  8
0
 62
7
 90
9
 70
1
 10
18.001562
 20
35.190000
 10
18.001562
 20
34.876562
 10
18.298437
 20
34.876562
 10
18.298437
 20
35.503437
 10
18.001562
 20
35.503437
 10
18.001562
 20
34.876562
 10
18.298437
 20
34.876562
 10
18.298437
 20
35.503437
 10
18.001562
 20
35.503437
  0
LWPOLYLINE
  8
0
 62
7
 90
9
 70
1
 10
17.501562
 20
35.190000
 10
17.501562
 20
34.876562
 10
17.798437
 20
34.876562
 10
17.798437
 20
35.503437
 10
17.501562
 20
35.503437
 10
17.501562
 20
34.876562
 10
17.798437
 20
34.876562
 10
17.798437
 20
35.503437
 10
17.501562
 20
35.503437
  0
LWPOLYLINE
  8
0
 62
7
 90
9
 70
1
 10
17.010000
 20
34.698437
 10
16.696563
 20
34.698437
 10
16.696563
 20
34.401562
 10
17.323438
 20
34.401562
 10
17.323438
 20
34.698437
 10
16.696563
 20
34.698437
 10
16.696563
 20
34.401562
 10
17.323438
 20
34.401562
 10
17.323438
 20
34.698437
  0
LWPOLYLINE
  8
0
 62
7
 90
9
 70
1
 10
17.010000
 20
34.198437
 10
16.696563
 20
34.198437
 10
16.696563
 20
33.901562
 10
17.323438
 20
33.901562
 10
17.323438
 20
34.198437
 10
16.696563
 20
34.198437
 10
16.696563
 20
33.901562
 10
17.323438
 20
33.901562
 10
17.323438
 20
34.198437
  0
LWPOLYLINE
  8
0
 62
7
 90
9
 70
1
 10
17.010000
 20
33.698437
 10
16.696563
 20
33.698437
 10
16.696563
 20
33.401562
 10
17.323438
 20
33.401562
 10
17.323438
 20
33.698437
 10
16.696563
 20
33.698437
 10
16.696563
 20
33.401562
 10
17.323438
 20
33.401562
 10
17.323438
 20
33.698437
  0
LWPOLYLINE
  8
0
 62
7
 90
9
 70
1
 10
17.010000
 20
33.198437
 10
16.696563
 20
33.198437
 10
16.696563
 20
32.901562
 10
17.323438
 20
32.901562
 10
17.323438
 20
33.198437
 10
16.696563
 20
33.198437
 10
16.696563
 20
32.901562
 10
17.323438
 20
32.901562
 10
17.323438
 20
33.198437
  0
LWPOLYLINE
  8
0
 62
7
 90
9
 70
1
 10
17.798437
 20
32.410000
 10
17.798437
 20
32.723437
 10
17.501562
 20
32.723437
 10
17.501562
 20
32.096562
 10
17.798437
 20
32.096562
 10
17.798437
 20
32.723437
 10
17.501562
 20
32.723437
 10
17.501562
 20
32.096562
 10
17.798437
 20
32.096562
  0
LWPOLYLINE
  8
0
 62
7
 90
9
 70
1
 10
18.298437
 20
32.410000
 10
18.298437
 20
32.723437
 10
18.001562
 20
32.723437
 10
18.001562
 20
32.096562
 10
18.298437
 20
32.096562
 10
18.298437
 20
32.723437
 10
18.001562
 20
32.723437
 10
18.001562
 20
32.096562
 10
18.298437
 20
32.096562
  0
LWPOLYLINE
  8
0
 62
7
 90
9
 70
1
 10
18.798437
 20
32.410000
 10
18.798437
 20
32.723437
 10
18.501562
 20
32.723437
 10
18.501562
 20
32.096562
 10
18.798437
 20
32.096562
 10
18.798437
 20
32.723437
 10
18.501562
 20
32.723437
 10
18.501562
 20
32.096562
 10
18.798437
 20
32.096562
  0
LWPOLYLINE
  8
0
 62
7
 90
9
 70
1
 10
19.298437
 20
32.410000
 10
19.298437
 20
32.723437
 10
19.001562
 20
32.723437
 10
19.001562
 20
32.096562
 10
19.298437
 20
32.096562
 10
19.298437
 20
32.723437
 10
19.001562
 20
32.723437
 10
19.001562
 20
32.096562
 10
19.298437
 20
32.096562
  0
LWPOLYLINE
  8
0
 62
7
 90
9
 70
1
  0
LWPOLYLINE
  8
0
 62
7
 90
9
 70
1
 10
18.601563
 20
33.300000
 10
18.601563
 20
33.001562
 10
19.198437
 20
33.001562
 10
19.198437
 20
33.598437
 10
18.601563
 20
33.598437
 10
18.601563
 20
33.001562
 10
19.198437
 20
33.001562
 10
19.198437
 20
33.598437
 10
18.601563
 20
33.598437
  0
LWPOLYLINE
  8
0
 62
7
 90
9
 70
1
  0
LWPOLYLINE
  8
0
 62
7
 90
9
 70
1
 10
17.601563
 20
33.300000
 10
17.601563
 20
33.001562
 10
18.198437
 20
33.001562
 10
18.198437
 20
33.598437
 10
17.601563
 20
33.598437
 10
17.601563
 20
33.001562
 10
18.198437
 20
33.001562
 10
18.198437
 20
33.598437
 10
17.601563
 20
33.598437
  0
LWPOLYLINE
  8
0
 62
7
 90
9
 70
1
  0
LWPOLYLINE
  8
0
 62
7
 90
9
 70
1
 10
17.601563
 20
34.300000
 10
17.601563
 20
34.001562
 10
18.198437
 20
34.001562
 10
18.198437
 20
34.598437
 10
17.601563
 20
34.598437
 10
17.601563
 20
34.001562
 10
18.198437
 20
34.001562
 10
18.198437
 20
34.598437
 10
17.601563
 20
34.598437
  0
LWPOLYLINE
  8
0
 62
7
 90
9
 70
1
  0
LWPOLYLINE
  8
0
 62
7
 90
9
 70
1
 10
18.601563
 20
34.300000
 10
18.601563
 20
34.001562
 10
19.198437
 20
34.001562
 10
19.198437
 20
34.598437
 10
18.601563
 20
34.598437
 10
18.601563
 20
34.001562
 10
19.198437
 20
34.001562
 10
19.198437
 20
34.598437
 10
18.601563
 20
34.598437
  0
LWPOLYLINE
  8
0
 62
7
 90
9
 70
1
 10
9.350000
 20
35.198437
 10
9.151562
 20
35.198437
 10
9.151562
 20
34.601563
 10
9.548438
 20
34.601563
 10
9.548438
 20
35.198437
 10
9.151562
 20
35.198437
 10
9.151562
 20
34.601563
 10
9.548438
 20
34.601563
 10
9.548438
 20
35.198437
  0
LWPOLYLINE
  8
0
 62
7
 90
9
 70
1
 10
9.350000
 20
32.998438
 10
9.151562
 20
32.998438
 10
9.151562
 20
32.401563
 10
9.548438
 20
32.401563
 10
9.548438
 20
32.998438
 10
9.151562
 20
32.998438
 10
9.151562
 20
32.401563
 10
9.548438
 20
32.401563
 10
9.548438
 20
32.998438
  0
LWPOLYLINE
  8
0
 62
7
 90
9
 70
1
 10
7.450000
 20
35.198437
 10
7.251563
 20
35.198437
 10
7.251563
 20
34.601563
 10
7.648438
 20
34.601563
 10
7.648438
 20
35.198437
 10
7.251563
 20
35.198437
 10
7.251563
 20
34.601563
 10
7.648438
 20
34.601563
 10
7.648438
 20
35.198437
  0
LWPOLYLINE
  8
0
 62
7
 90
9
 70
1
 10
7.450000
 20
32.998438
 10
7.251563
 20
32.998438
 10
7.251563
 20
32.401563
 10
7.648438
 20
32.401563
 10
7.648438
 20
32.998438
 10
7.251563
 20
32.998438
 10
7.251563
 20
32.401563
 10
7.648438
 20
32.401563
 10
7.648438
 20
32.998438
  0
LWPOLYLINE
  8
0
 62
7
 90
9
 70
1
 10
8.400000
 20
35.198437
 10
8.201562
 20
35.198437
 10
8.201562
 20
34.601563
 10
8.598438
 20
34.601563
 10
8.598438
 20
35.198437
 10
8.201562
 20
35.198437
 10
8.201562
 20
34.601563
 10
8.598438
 20
34.601563
 10
8.598438
 20
35.198437
  0
LWPOLYLINE
  8
0
 62
7
 90
9
 70
1
 10
7.175000
 20
24.176562
 10
7.573437
 20
24.176562
 10
7.573437
 20
25.073438
 10
6.776562
 20
25.073438
 10
6.776562
 20
24.176562
 10
7.573437
 20
24.176562
 10
7.573437
 20
25.073438
 10
6.776562
 20
25.073438
 10
6.776562
 20
24.176562
  0
LWPOLYLINE
  8
0
 62
7
 90
9
 70
1
 10
7.175000
 20
22.526563
 10
7.573437
 20
22.526563
 10
7.573437
 20
23.423438
 10
6.776562
 20
23.423438
 10
6.776562
 20
22.526563
 10
7.573437
 20
22.526563
 10
7.573437
 20
23.423438
 10
6.776562
 20
23.423438
 10
6.776562
 20
22.526563
  0
LWPOLYLINE
  8
0
 62
7
 90
9
 70
1
 10
8.425000
 20
22.526563
 10
8.823438
 20
22.526563
 10
8.823438
 20
23.423438
 10
8.026563
 20
23.423438
 10
8.026563
 20
22.526563
 10
8.823438
 20
22.526563
 10
8.823438
 20
23.423438
 10
8.026563
 20
23.423438
 10
8.026563
 20
22.526563
  0
LWPOLYLINE
  8
0
 62
7
 90
9
 70
1
 10
8.425000
 20
24.176562
 10
8.823438
 20
24.176562
 10
8.823438
 20
25.073438
 10
8.026563
 20
25.073438
 10
8.026563
 20
24.176562
 10
8.823438
 20
24.176562
 10
8.823438
 20
25.073438
 10
8.026563
 20
25.073438
 10
8.026563
 20
24.176562
  0
ENDSEC
  0
EOF
