  0
SECTION
  2
HEADER
  9
$ACADVER
  1
AC1009
  9
$FILLMODE
 70
0
  9
$EXTMIN
 10
-0.0005
 20
-0.0005
 30
0.0000
  9
$EXTMAX
 10
83.0005
 20
86.8005
 30
0.0000
  0
ENDSEC
  0
SECTION
  2
TABLES
  0
TABLE
  2
LTYPE
 70
1
  0
LTYPE
  2
CONTINUOUS
 70
64
  3
Solid line
 72
65
 73
0
 40
0
  0
ENDTAB
  0
TABLE
  2
LAYER
 70
255
  0
LAYER
  2
1
 70
64
 62
12
  6
CONTINUOUS
  0
LAYER
  2
16
 70
64
 62
132
  6
CONTINUOUS
  0
LAYER
  2
17
 70
64
 62
110
  6
CONTINUOUS
  0
LAYER
  2
18
 70
64
 62
110
  6
CONTINUOUS
  0
LAYER
  2
19
 70
64
 62
53
  6
CONTINUOUS
  0
LAYER
  2
20
 70
64
 62
31
  6
CONTINUOUS
  0
LAYER
  2
21
 70
64
 62
253
  6
CONTINUOUS
  0
LAYER
  2
22
 70
64
 62
253
  6
CONTINUOUS
  0
LAYER
  2
23
 70
64
 62
53
  6
CONTINUOUS
  0
LAYER
  2
24
 70
64
 62
53
  6
CONTINUOUS
  0
LAYER
  2
25
 70
64
 62
253
  6
CONTINUOUS
  0
LAYER
  2
26
 70
64
 62
253
  6
CONTINUOUS
  0
LAYER
  2
27
 70
64
 62
253
  6
CONTINUOUS
  0
LAYER
  2
28
 70
64
 62
253
  6
CONTINUOUS
  0
LAYER
  2
39
 70
64
 62
12
  6
CONTINUOUS
  0
LAYER
  2
40
 70
64
 62
132
  6
CONTINUOUS
  0
LAYER
  2
41
 70
64
 62
12
  6
CONTINUOUS
  0
LAYER
  2
42
 70
64
 62
132
  6
CONTINUOUS
  0
LAYER
  2
43
 70
64
 62
110
  6
CONTINUOUS
  0
LAYER
  2
48
 70
64
 62
253
  6
CONTINUOUS
  0
LAYER
  2
49
 70
64
 62
253
  6
CONTINUOUS
  0
LAYER
  2
51
 70
64
 62
253
  6
CONTINUOUS
  0
LAYER
  2
52
 70
64
 62
253
  6
CONTINUOUS
  0
ENDTAB
  0
ENDSEC
  0
SECTION
  2
BLOCKS
  0
BLOCK
  8
0
  2
RECT
 70
64
 10
0.0000
 20
0.0000
 30
0.0000
  3
RECT
  0
SOLID
  8
0
 10
-0.5000
 20
-0.5000
 30
0.0000
 11
0.5000
 21
-0.5000
 31
0.0000
 12
-0.5000
 22
0.5000
 32
0.0000
 13
0.5000
 23
0.5000
 33
0.0000
  0
ENDBLK
  8
0
  0
BLOCK
  8
0
  2
PIE
 70
64
 10
0.0000
 20
0.0000
 30
0.0000
  3
PIE
  0
CIRCLE
  8
0
 10
0.0000
 20
0.0000
 30
0.0000
 40
0.5000
  0
ENDBLK
  8
0
  0
BLOCK
  8
0
  2
OCTAGONP
 70
64
 10
0.0000
 20
0.0000
 30
0.0000
  3
OCTAGONP
  0
POLYLINE
  8
0
 66
1
 10
0.0000
 20
0.0000
 30
0.0000
 40
0.0000
 41
0.0000
 70
1
  0
VERTEX
  8
0
 10
-0.5000
 20
-0.2071
 30
0.0000
  0
VERTEX
  8
0
 10
-0.5000
 20
0.2071
 30
0.0000
  0
VERTEX
  8
0
 10
-0.2071
 20
0.5000
 30
0.0000
  0
VERTEX
  8
0
 10
0.2071
 20
0.5000
 30
0.0000
  0
VERTEX
  8
0
 10
0.5000
 20
0.2071
 30
0.0000
  0
VERTEX
  8
0
 10
0.5000
 20
-0.2071
 30
0.0000
  0
VERTEX
  8
0
 10
0.2071
 20
-0.5000
 30
0.0000
  0
VERTEX
  8
0
 10
-0.2071
 20
-0.5000
 30
0.0000
  0
SEQEND
  8
0
  0
ENDBLK
  8
0
  0
BLOCK
  8
0
  2
SQUAREP
 70
64
 10
0.0000
 20
0.0000
 30
0.0000
  3
SQUAREP
  0
SOLID
  8
0
 10
-0.5000
 20
-0.5000
 30
0.0000
 11
0.5000
 21
-0.5000
 31
0.0000
 12
-0.5000
 22
0.5000
 32
0.0000
 13
0.5000
 23
0.5000
 33
0.0000
  0
ENDBLK
  8
0
  0
BLOCK
  8
0
  2
ROUNDP
 70
64
 10
0.0000
 20
0.0000
 30
0.0000
  3
ROUNDP
  0
CIRCLE
  8
0
 10
0.0000
 20
0.0000
 30
0.0000
 40
0.5000
  0
ENDBLK
  8
0
  0
BLOCK
  8
0
  2
ANNULUSP
 70
64
 10
0.0000
 20
0.0000
 30
0.0000
  3
ANNULUSP
  0
CIRCLE
  8
0
 10
0.0000
 20
0.0000
 30
0.0000
 40
0.5000
  0
ENDBLK
  8
0
  0
BLOCK
  8
0
  2
THERMALP
 70
64
 10
0.0000
 20
0.0000
 30
0.0000
  3
THERMALP
  0
LINE
  8
0
 10
-0.2379
 20
0.4500
 30
0.0000
 11
0.2379
 21
0.4500
 31
0.0000
  0
LINE
  8
0
 10
0.4500
 20
0.2379
 30
0.0000
 11
0.4500
 21
-0.2379
 31
0.0000
  0
LINE
  8
0
 10
0.2379
 20
-0.4500
 30
0.0000
 11
-0.2379
 21
-0.4500
 31
0.0000
  0
LINE
  8
0
 10
-0.4500
 20
-0.2379
 30
0.0000
 11
-0.4500
 21
0.2379
 31
0.0000
  0
ENDBLK
  8
0
  0
BLOCK
  8
0
  2
OCTAGONV
 70
64
 10
0.0000
 20
0.0000
 30
0.0000
  3
OCTAGONV
  0
POLYLINE
  8
0
 66
1
 10
0.0000
 20
0.0000
 30
0.0000
 40
0.0000
 41
0.0000
 70
1
  0
VERTEX
  8
0
 10
-0.5000
 20
-0.2071
 30
0.0000
  0
VERTEX
  8
0
 10
-0.5000
 20
0.2071
 30
0.0000
  0
VERTEX
  8
0
 10
-0.2071
 20
0.5000
 30
0.0000
  0
VERTEX
  8
0
 10
0.2071
 20
0.5000
 30
0.0000
  0
VERTEX
  8
0
 10
0.5000
 20
0.2071
 30
0.0000
  0
VERTEX
  8
0
 10
0.5000
 20
-0.2071
 30
0.0000
  0
VERTEX
  8
0
 10
0.2071
 20
-0.5000
 30
0.0000
  0
VERTEX
  8
0
 10
-0.2071
 20
-0.5000
 30
0.0000
  0
SEQEND
  8
0
  0
ENDBLK
  8
0
  0
BLOCK
  8
0
  2
SQUAREV
 70
64
 10
0.0000
 20
0.0000
 30
0.0000
  3
SQUAREV
  0
SOLID
  8
0
 10
-0.5000
 20
-0.5000
 30
0.0000
 11
0.5000
 21
-0.5000
 31
0.0000
 12
-0.5000
 22
0.5000
 32
0.0000
 13
0.5000
 23
0.5000
 33
0.0000
  0
ENDBLK
  8
0
  0
BLOCK
  8
0
  2
ROUNDV
 70
64
 10
0.0000
 20
0.0000
 30
0.0000
  3
ROUNDV
  0
CIRCLE
  8
0
 10
0.0000
 20
0.0000
 30
0.0000
 40
0.5000
  0
ENDBLK
  8
0
  0
BLOCK
  8
0
  2
ANNULUSV
 70
64
 10
0.0000
 20
0.0000
 30
0.0000
  3
ANNULUSV
  0
CIRCLE
  8
0
 10
0.0000
 20
0.0000
 30
0.0000
 40
0.5000
  0
ENDBLK
  8
0
  0
BLOCK
  8
0
  2
THERMALV
 70
64
 10
0.0000
 20
0.0000
 30
0.0000
  3
THERMALV
  0
LINE
  8
0
 10
-0.2379
 20
0.4500
 30
0.0000
 11
0.2379
 21
0.4500
 31
0.0000
  0
LINE
  8
0
 10
0.4500
 20
0.2379
 30
0.0000
 11
0.4500
 21
-0.2379
 31
0.0000
  0
LINE
  8
0
 10
0.2379
 20
-0.4500
 30
0.0000
 11
-0.2379
 21
-0.4500
 31
0.0000
  0
LINE
  8
0
 10
-0.4500
 20
-0.2379
 30
0.0000
 11
-0.4500
 21
0.2379
 31
0.0000
  0
ENDBLK
  8
0
  0
ENDSEC
  0
SECTION
  2
ENTITIES
  0
ARC
  8
20
 10
9.8199
 20
67.0806
 30
0.0000
 40
5.0000
 50
135.0000
 51
224.9999
  0
ARC
  8
20
 10
19.7194
 20
76.9801
 30
0.0000
 40
5.0000
 50
45.0000
 51
134.9999
  0
ARC
  8
20
 10
25.8348
 20
70.8647
 30
0.0000
 40
5.0000
 50
315.0000
 51
45.0000
  0
ARC
  8
20
 10
15.9353
 20
60.9652
 30
0.0000
 40
5.0000
 50
225.0000
 51
315.0000
  0
ARC
  8
20
 10
15.9353
 20
25.8348
 30
0.0000
 40
5.0000
 50
45.0000
 51
135.0000
  0
ARC
  8
20
 10
9.8199
 20
19.7194
 30
0.0000
 40
5.0000
 50
135.0000
 51
224.9999
  0
ARC
  8
20
 10
19.7194
 20
9.8199
 30
0.0000
 40
5.0000
 50
225.0000
 51
315.0000
  0
ARC
  8
20
 10
25.8348
 20
15.9353
 30
0.0000
 40
5.0000
 50
315.0000
 51
45.0000
  0
ARC
  8
20
 10
57.1652
 20
15.9353
 30
0.0000
 40
5.0000
 50
135.0000
 51
225.0000
  0
ARC
  8
20
 10
63.2806
 20
9.8199
 30
0.0000
 40
5.0000
 50
225.0000
 51
315.0000
  0
ARC
  8
20
 10
73.2203
 20
19.7596
 30
0.0000
 40
5.0000
 50
315.0001
 51
45.2388
  0
ARC
  8
20
 10
67.0794
 20
25.8495
 30
0.0000
 40
5.0000
 50
45.2388
 51
135.0000
  0
ARC
  8
20
 10
57.1652
 20
70.8647
 30
0.0000
 40
5.0000
 50
135.0000
 51
225.0000
  0
ARC
  8
20
 10
67.0647
 20
60.9652
 30
0.0000
 40
5.0000
 50
225.0000
 51
315.0000
  0
ARC
  8
20
 10
73.1801
 20
67.0806
 30
0.0000
 40
5.0000
 50
315.0001
 51
44.9999
  0
ARC
  8
20
 10
63.2806
 20
76.9801
 30
0.0000
 40
5.0000
 50
45.0000
 51
134.9999
  0
LINE
  8
20
 10
70.6002
 20
29.3997
 30
0.0000
 11
76.7410
 21
23.3099
 31
0.0000
  0
LINE
  8
20
 10
83.0000
 20
0.0000
 30
0.0000
 11
83.0000
 21
21.2132
 31
0.0000
  0
LINE
  8
20
 10
83.0000
 20
21.2132
 30
0.0000
 11
66.7171
 21
37.4962
 31
0.0000
  0
LINE
  8
20
 10
66.7171
 20
37.4962
 30
0.0000
 11
68.1313
 21
38.9104
 31
0.0000
  0
LINE
  8
20
 10
68.1313
 20
38.9104
 30
0.0000
 11
67.1515
 21
39.8902
 31
0.0000
  0
LINE
  8
20
 10
67.1515
 20
39.8902
 30
0.0000
 11
43.1098
 21
15.8485
 31
0.0000
  0
LINE
  8
20
 10
43.1098
 20
15.8485
 30
0.0000
 11
44.0896
 21
14.8687
 31
0.0000
  0
LINE
  8
20
 10
83.0000
 20
0.0000
 30
0.0000
 11
65.5868
 21
0.0000
 31
0.0000
  0
LINE
  8
20
 10
65.5868
 20
0.0000
 30
0.0000
 11
61.7868
 21
0.0000
 31
0.0000
  0
LINE
  8
20
 10
76.7558
 20
16.2241
 30
0.0000
 11
66.8161
 21
6.2844
 31
0.0000
  0
LINE
  8
20
 10
61.7868
 20
0.0000
 30
0.0000
 11
45.5038
 21
16.2829
 31
0.0000
  0
LINE
  8
20
 10
45.5038
 20
16.2829
 30
0.0000
 11
44.0896
 21
14.8687
 31
0.0000
  0
LINE
  8
20
 10
83.0000
 20
86.8000
 30
0.0000
 11
83.0000
 21
65.5868
 31
0.0000
  0
LINE
  8
20
 10
83.0000
 20
65.5868
 30
0.0000
 11
66.7171
 21
49.3039
 31
0.0000
  0
LINE
  8
20
 10
66.7171
 20
49.3039
 30
0.0000
 11
68.1313
 21
47.8896
 31
0.0000
  0
LINE
  8
20
 10
68.1313
 20
47.8896
 30
0.0000
 11
67.1515
 21
46.9098
 31
0.0000
  0
LINE
  8
20
 10
67.1515
 20
46.9098
 30
0.0000
 11
46.9098
 21
67.1515
 31
0.0000
  0
LINE
  8
20
 10
46.9098
 20
67.1515
 30
0.0000
 11
43.1098
 21
70.9515
 31
0.0000
  0
LINE
  8
20
 10
43.1098
 20
70.9515
 30
0.0000
 11
44.0896
 21
71.9313
 31
0.0000
  0
LINE
  8
20
 10
83.0000
 20
86.8000
 30
0.0000
 11
61.7868
 21
86.8000
 31
0.0000
  0
LINE
  8
20
 10
61.7868
 20
86.8000
 30
0.0000
 11
45.5038
 21
70.5170
 31
0.0000
  0
LINE
  8
20
 10
45.5038
 20
70.5170
 30
0.0000
 11
44.0896
 21
71.9313
 31
0.0000
  0
LINE
  8
20
 10
0.0000
 20
86.8000
 30
0.0000
 11
21.2132
 21
86.8000
 31
0.0000
  0
LINE
  8
20
 10
21.2132
 20
86.8000
 30
0.0000
 11
37.4962
 21
70.5170
 31
0.0000
  0
LINE
  8
20
 10
37.4962
 20
70.5170
 30
0.0000
 11
38.9104
 21
71.9313
 31
0.0000
  0
LINE
  8
20
 10
38.9104
 20
71.9313
 30
0.0000
 11
39.8902
 21
70.9515
 31
0.0000
  0
LINE
  8
20
 10
39.8902
 20
70.9515
 30
0.0000
 11
15.8485
 21
46.9098
 31
0.0000
  0
LINE
  8
20
 10
15.8485
 20
46.9098
 30
0.0000
 11
14.8687
 21
47.8896
 31
0.0000
  0
LINE
  8
20
 10
0.0000
 20
86.8000
 30
0.0000
 11
0.0000
 21
83.0000
 31
0.0000
  0
LINE
  8
20
 10
0.0000
 20
83.0000
 30
0.0000
 11
0.0000
 21
65.5868
 31
0.0000
  0
LINE
  8
20
 10
0.0000
 20
65.5868
 30
0.0000
 11
16.2829
 21
49.3039
 31
0.0000
  0
LINE
  8
20
 10
16.2829
 20
49.3039
 30
0.0000
 11
14.8687
 21
47.8896
 31
0.0000
  0
LINE
  8
20
 10
53.6297
 20
12.3998
 30
0.0000
 11
59.7450
 21
6.2844
 31
0.0000
  0
LINE
  8
20
 10
63.5439
 20
29.3850
 30
0.0000
 11
53.6297
 21
19.4708
 31
0.0000
  0
LINE
  8
20
 10
53.6297
 20
67.3292
 30
0.0000
 11
57.4297
 21
63.5292
 31
0.0000
  0
LINE
  8
20
 10
57.4297
 20
63.5292
 30
0.0000
 11
63.5292
 21
57.4297
 31
0.0000
  0
LINE
  8
20
 10
76.7156
 20
63.5450
 30
0.0000
 11
70.6003
 21
57.4297
 31
0.0000
  0
LINE
  8
20
 10
66.8161
 20
80.5156
 30
0.0000
 11
70.6161
 21
76.7156
 31
0.0000
  0
LINE
  8
20
 10
70.6161
 20
76.7156
 30
0.0000
 11
76.7156
 21
70.6161
 31
0.0000
  0
LINE
  8
20
 10
59.7450
 20
80.5156
 30
0.0000
 11
53.6297
 21
74.4002
 31
0.0000
  0
LINE
  8
20
 10
12.3998
 20
57.4297
 30
0.0000
 11
6.2844
 21
63.5450
 31
0.0000
  0
LINE
  8
20
 10
16.1839
 20
80.5156
 30
0.0000
 11
6.2844
 21
70.6161
 31
0.0000
  0
LINE
  8
20
 10
23.2550
 20
80.5156
 30
0.0000
 11
29.3703
 21
74.4002
 31
0.0000
  0
LINE
  8
20
 10
29.3703
 20
67.3292
 30
0.0000
 11
19.4708
 21
57.4297
 31
0.0000
  0
ARC
  8
20
 10
25.8348
 20
15.9353
 30
0.0000
 40
5.0000
 50
315.0000
 51
45.0000
  0
ARC
  8
20
 10
19.7194
 20
9.8199
 30
0.0000
 40
5.0000
 50
225.0000
 51
315.0000
  0
ARC
  8
20
 10
9.8199
 20
19.7194
 30
0.0000
 40
5.0000
 50
135.0000
 51
224.9999
  0
ARC
  8
20
 10
15.9353
 20
25.8348
 30
0.0000
 40
5.0000
 50
45.0000
 51
135.0000
  0
LINE
  8
20
 10
0.0000
 20
0.0000
 30
0.0000
 11
21.2132
 21
0.0000
 31
0.0000
  0
LINE
  8
20
 10
21.2132
 20
0.0000
 30
0.0000
 11
37.4962
 21
16.2829
 31
0.0000
  0
LINE
  8
20
 10
37.4962
 20
16.2829
 30
0.0000
 11
38.9104
 21
14.8687
 31
0.0000
  0
LINE
  8
20
 10
38.9104
 20
14.8687
 30
0.0000
 11
39.8902
 21
15.8485
 31
0.0000
  0
LINE
  8
20
 10
39.8902
 20
15.8485
 30
0.0000
 11
15.8485
 21
39.8902
 31
0.0000
  0
LINE
  8
20
 10
15.8485
 20
39.8902
 30
0.0000
 11
14.8687
 21
38.9104
 31
0.0000
  0
LINE
  8
20
 10
0.0000
 20
0.0000
 30
0.0000
 11
0.0000
 21
21.2132
 31
0.0000
  0
LINE
  8
20
 10
0.0000
 20
21.2132
 30
0.0000
 11
16.2829
 21
37.4962
 31
0.0000
  0
LINE
  8
20
 10
16.2829
 20
37.4962
 30
0.0000
 11
14.8687
 21
38.9104
 31
0.0000
  0
LINE
  8
20
 10
29.3703
 20
19.4708
 30
0.0000
 11
19.4708
 21
29.3703
 31
0.0000
  0
LINE
  8
20
 10
12.3998
 20
29.3703
 30
0.0000
 11
6.2844
 21
23.2550
 31
0.0000
  0
LINE
  8
20
 10
16.1839
 20
6.2844
 30
0.0000
 11
6.2844
 21
16.1839
 31
0.0000
  0
LINE
  8
20
 10
29.3703
 20
12.3998
 30
0.0000
 11
23.2550
 21
6.2844
 31
0.0000
  0
ENDSEC
  0
EOF
